<svg width="127" height="37" viewBox="0 0 127 37" fill="none" xmlns="http://www.w3.org/2000/svg">
<g clip-path="url(#clip0_145_124)">
<path d="M3.24808 18.1679C2.65434 18.5638 2.65434 19.4362 3.24808 19.832L15.4453 27.9635C16.1099 28.4066 17 27.9302 17 27.1315L17 10.8685C17 10.0698 16.1099 9.59343 15.4453 10.0365L3.24808 18.1679Z" fill="#3B4446"/>
</g>
<path d="M41.3311 20.5781C41.4613 20.5781 41.5264 20.513 41.5264 20.3828V16.4277C41.5264 16.3138 41.4613 16.2568 41.3311 16.2568H37.3027C37.1888 16.2568 37.1318 16.3138 37.1318 16.4277V20.3828C37.1318 20.513 37.1888 20.5781 37.3027 20.5781H41.3311ZM34.3242 15.085C34.3242 14.6943 34.4626 14.3607 34.7393 14.084C35.0322 13.791 35.374 13.6445 35.7646 13.6445H43.0889C43.4795 13.6445 43.8132 13.791 44.0898 14.084C44.3828 14.3607 44.5293 14.6943 44.5293 15.085V21.7012C44.5293 22.1081 44.3828 22.4499 44.0898 22.7266C43.8132 23.0033 43.4795 23.1416 43.0889 23.1416H35.7646C35.374 23.1416 35.0322 23.0033 34.7393 22.7266C34.4626 22.4499 34.3242 22.1081 34.3242 21.7012V15.085ZM31.9316 25.876C31.9316 25.9899 31.9886 26.0469 32.1025 26.0469H46.7754C46.8893 26.0469 46.9463 25.9899 46.9463 25.876V10.8857C46.9463 10.7555 46.8893 10.6904 46.7754 10.6904H32.1025C31.9886 10.6904 31.9316 10.7555 31.9316 10.8857V25.876ZM28.8311 9.0791C28.8311 8.68848 28.9694 8.35482 29.2461 8.07812C29.5228 7.78516 29.8646 7.63867 30.2715 7.63867H48.7529C49.1598 7.63867 49.5016 7.78516 49.7783 8.07812C50.055 8.35482 50.1934 8.68848 50.1934 9.0791V28.708C50.1934 29.1149 50.055 29.4567 49.7783 29.7334C49.5016 30.0101 49.1598 30.1484 48.7529 30.1484H48.1182C47.7926 30.1484 47.516 30.0345 47.2881 29.8066C47.0602 29.5788 46.9463 29.3021 46.9463 28.9766C46.9463 28.8789 46.8975 28.8301 46.7998 28.8301H32.0781C31.9805 28.8301 31.9316 28.8789 31.9316 28.9766C31.9316 29.3021 31.8177 29.5788 31.5898 29.8066C31.362 30.0345 31.0853 30.1484 30.7598 30.1484H30.2715C29.8646 30.1484 29.5228 30.0101 29.2461 29.7334C28.9694 29.4567 28.8311 29.1149 28.8311 28.708V9.0791ZM60.9355 25.5586C60.9355 25.6888 60.9925 25.7458 61.1064 25.7295L64.4268 25.3389C64.4756 25.3389 64.5326 25.3389 64.5977 25.3389C64.8906 25.3389 65.1592 25.4365 65.4033 25.6318C65.68 25.876 65.8265 26.1852 65.8428 26.5596C65.859 26.82 65.8102 27.0641 65.6963 27.292C65.5824 27.5199 65.4196 27.7152 65.208 27.8779C65.0127 28.0244 64.7848 28.1139 64.5244 28.1465C64.3128 28.179 61.0495 28.6022 54.7344 29.416C54.653 29.416 54.5798 29.416 54.5146 29.416C54.2054 29.416 53.9206 29.3184 53.6602 29.123C53.3346 28.8952 53.1393 28.5778 53.0742 28.1709L53.0498 28.0732C53.0335 27.9919 53.0254 27.9105 53.0254 27.8291C53.0254 27.5361 53.123 27.2676 53.3184 27.0234C53.5625 26.7142 53.8799 26.5433 54.2705 26.5107C55.6702 26.3643 56.8421 26.234 57.7861 26.1201C57.9163 26.1038 57.9814 26.0387 57.9814 25.9248V23.0684C57.9814 22.9382 57.9163 22.873 57.7861 22.873H55.1494C54.7913 22.873 54.4821 22.7428 54.2217 22.4824C53.9613 22.222 53.8311 21.9128 53.8311 21.5547C53.8311 21.1803 53.9613 20.8711 54.2217 20.627C54.4821 20.3665 54.7913 20.2363 55.1494 20.2363H57.7861C57.9163 20.2363 57.9814 20.1712 57.9814 20.041V19.2354C57.9814 18.8447 58.1198 18.5111 58.3965 18.2344C58.6732 17.9414 59.015 17.7949 59.4219 17.7949H59.4951C59.8857 17.7949 60.2194 17.9414 60.4961 18.2344C60.7891 18.5111 60.9355 18.8447 60.9355 19.2354V20.041C60.9355 20.1712 60.9925 20.2363 61.1064 20.2363H63.6699C64.0443 20.2363 64.3535 20.3665 64.5977 20.627C64.8581 20.8711 64.9883 21.1803 64.9883 21.5547C64.9883 21.9128 64.8581 22.222 64.5977 22.4824C64.3535 22.7428 64.0443 22.873 63.6699 22.873H61.1064C60.9925 22.873 60.9355 22.9382 60.9355 23.0684V25.5586ZM61.4482 13.6445C61.3018 13.4492 61.2285 13.2458 61.2285 13.0342C61.2285 12.9528 61.2367 12.8633 61.2529 12.7656C61.3343 12.4564 61.5133 12.2285 61.79 12.082C62.0179 11.9681 62.2539 11.9111 62.498 11.9111C62.5957 11.9111 62.7015 11.9193 62.8154 11.9355C63.1735 12.0007 63.4583 12.1797 63.6699 12.4727C64.5977 13.6934 65.3464 14.8083 65.916 15.8174C66.0137 16.0127 66.0625 16.2243 66.0625 16.4521C66.0625 16.5824 66.0462 16.7207 66.0137 16.8672C65.8997 17.2253 65.6719 17.502 65.3301 17.6973L65.2568 17.7461C65.0778 17.8438 64.8906 17.8926 64.6953 17.8926C64.5814 17.8926 64.4593 17.8682 64.3291 17.8193C64.0199 17.7217 63.7839 17.5182 63.6211 17.209C63.5723 17.1276 63.4909 17.0869 63.377 17.0869C61.0169 17.2171 58.0954 17.3555 54.6123 17.502C54.596 17.502 54.5716 17.502 54.5391 17.502C54.181 17.502 53.8717 17.388 53.6113 17.1602C53.2858 16.8672 53.123 16.5091 53.123 16.0859C53.123 15.7441 53.2451 15.4512 53.4893 15.207C53.7497 14.9303 54.0671 14.7839 54.4414 14.7676L55.0518 14.7432C55.1657 14.7432 55.2471 14.6862 55.2959 14.5723C55.7028 13.4004 56.0446 12.2773 56.3213 11.2031C56.3376 11.1543 56.3294 11.1136 56.2969 11.0811C56.2806 11.0485 56.248 11.0322 56.1992 11.0322H54.417C54.0589 11.0322 53.7497 10.902 53.4893 10.6416C53.2288 10.3812 53.0986 10.0719 53.0986 9.71387C53.0986 9.35579 53.2288 9.04655 53.4893 8.78613C53.7497 8.52572 54.0589 8.39551 54.417 8.39551H64.4512C64.8255 8.39551 65.1348 8.52572 65.3789 8.78613C65.6393 9.04655 65.7695 9.35579 65.7695 9.71387C65.7695 10.0719 65.6393 10.3812 65.3789 10.6416C65.1348 10.902 64.8255 11.0322 64.4512 11.0322H59.8857C59.7555 11.0322 59.6742 11.0892 59.6416 11.2031C59.1533 12.4238 58.6895 13.5225 58.25 14.499C58.2337 14.5479 58.2337 14.5885 58.25 14.6211C58.2826 14.6536 58.3151 14.6699 58.3477 14.6699C59.1452 14.6536 60.3252 14.613 61.8877 14.5479C61.9365 14.5479 61.9691 14.5316 61.9854 14.499C62.0016 14.4665 61.9935 14.4339 61.9609 14.4014C61.7982 14.141 61.6273 13.8887 61.4482 13.6445ZM67.1123 10.2754C67.389 9.9987 67.7227 9.86035 68.1133 9.86035C68.5202 9.86035 68.862 9.9987 69.1387 10.2754C69.4154 10.5521 69.5537 10.8857 69.5537 11.2764V22.5068C69.5537 22.8975 69.4154 23.2311 69.1387 23.5078C68.862 23.7845 68.5202 23.9229 68.1133 23.9229C67.7227 23.9229 67.389 23.7845 67.1123 23.5078C66.8356 23.2311 66.6973 22.8975 66.6973 22.5068V11.2764C66.6973 10.8857 66.8356 10.5521 67.1123 10.2754ZM72.3857 8.95703C72.3857 8.56641 72.5241 8.23275 72.8008 7.95605C73.0775 7.66309 73.4193 7.5166 73.8262 7.5166H73.8506C74.2575 7.5166 74.5993 7.66309 74.876 7.95605C75.1527 8.23275 75.291 8.56641 75.291 8.95703V26.6328C75.291 27.4792 75.1852 28.1302 74.9736 28.5859C74.7783 29.0417 74.4365 29.3835 73.9482 29.6113C73.2972 29.9206 72.2067 30.0996 70.6768 30.1484C70.6442 30.1484 70.6198 30.1484 70.6035 30.1484C70.2292 30.1484 69.8874 30.0264 69.5781 29.7822C69.2363 29.5218 69.0085 29.1882 68.8945 28.7812C68.862 28.6673 68.8213 28.5615 68.7725 28.4639C68.7399 28.3499 68.7236 28.236 68.7236 28.1221C68.7236 27.9268 68.7887 27.7477 68.9189 27.585C69.098 27.3083 69.3421 27.1699 69.6514 27.1699C69.6676 27.1699 69.6839 27.1699 69.7002 27.1699C70.3187 27.1862 71.0104 27.1943 71.7754 27.1943C72.0033 27.1781 72.1579 27.1374 72.2393 27.0723C72.3369 26.9909 72.3857 26.8444 72.3857 26.6328V8.95703ZM94.8711 18.0146C95.0013 18.0146 95.0664 17.9577 95.0664 17.8438V16.6719C95.0664 16.5417 95.0013 16.4766 94.8711 16.4766H83.8359C83.722 16.4766 83.665 16.5417 83.665 16.6719V17.8438C83.665 17.9577 83.722 18.0146 83.8359 18.0146H94.8711ZM83.665 25.6562C83.665 25.7865 83.722 25.8516 83.8359 25.8516H94.8711C95.0013 25.8516 95.0664 25.7865 95.0664 25.6562V24.3379C95.0664 24.224 95.0013 24.167 94.8711 24.167H83.8359C83.722 24.167 83.665 24.224 83.665 24.3379V25.6562ZM94.8711 21.8965C95.0013 21.8965 95.0664 21.8314 95.0664 21.7012V20.4316C95.0664 20.3177 95.0013 20.2607 94.8711 20.2607H83.8359C83.722 20.2607 83.665 20.3177 83.665 20.4316V21.7012C83.665 21.8314 83.722 21.8965 83.8359 21.8965H94.8711ZM100.413 10.0068C100.69 10.2673 100.828 10.5928 100.828 10.9834C100.828 11.3577 100.69 11.6833 100.413 11.96C100.153 12.2204 99.8353 12.3506 99.4609 12.3506H91.502C91.388 12.3506 91.3066 12.4076 91.2578 12.5215C91.209 12.6354 91.1602 12.7493 91.1113 12.8633C91.0299 13.0423 90.9404 13.2376 90.8428 13.4492C90.7939 13.5632 90.7451 13.6608 90.6963 13.7422C90.68 13.791 90.68 13.8317 90.6963 13.8643C90.7288 13.8968 90.7695 13.9131 90.8184 13.9131H96.7266C97.1172 13.9131 97.4508 14.0596 97.7275 14.3525C98.0205 14.6292 98.167 14.9629 98.167 15.3535V28.1953C98.167 28.5859 98.0205 28.9196 97.7275 29.1963C97.4508 29.4893 97.1172 29.6357 96.7266 29.6357H96.1162C95.8232 29.6357 95.571 29.5299 95.3594 29.3184C95.1641 29.123 95.0664 28.8789 95.0664 28.5859C95.0664 28.5046 95.0257 28.4639 94.9443 28.4639H83.7871C83.7057 28.4639 83.665 28.5046 83.665 28.5859C83.665 28.8789 83.5592 29.123 83.3477 29.3184C83.1523 29.5299 82.9082 29.6357 82.6152 29.6357H82.1758C81.7852 29.6357 81.4434 29.4893 81.1504 29.1963C80.8737 28.9196 80.7354 28.5859 80.7354 28.1953V15.3535C80.7354 14.9629 80.8737 14.6292 81.1504 14.3525C81.4434 14.0596 81.7852 13.9131 82.1758 13.9131H87.1562C87.2702 13.9131 87.3434 13.8561 87.376 13.7422C87.4899 13.3841 87.5957 12.9772 87.6934 12.5215C87.7259 12.4076 87.6771 12.3506 87.5469 12.3506H79.6367C79.2461 12.3506 78.9124 12.2204 78.6357 11.96C78.3753 11.6833 78.2451 11.3577 78.2451 10.9834C78.2451 10.5928 78.3753 10.2673 78.6357 10.0068C78.9124 9.73014 79.2461 9.5918 79.6367 9.5918H83.7871C83.8359 9.5918 83.8685 9.57552 83.8848 9.54297C83.901 9.51042 83.901 9.47786 83.8848 9.44531C83.6895 9.15234 83.429 8.79427 83.1035 8.37109C82.9245 8.17578 82.835 7.94792 82.835 7.6875C82.835 7.60612 82.8512 7.5166 82.8838 7.41895C82.9489 7.07715 83.1523 6.82487 83.4941 6.66211H83.5186C83.7952 6.5319 84.0801 6.4668 84.373 6.4668C84.5033 6.4668 84.6335 6.47493 84.7637 6.49121C85.1868 6.57259 85.5449 6.7679 85.8379 7.07715C86.1309 7.41895 86.3994 7.7526 86.6436 8.07812C86.7738 8.25716 86.8389 8.4362 86.8389 8.61523C86.8389 8.71289 86.8226 8.80241 86.79 8.88379C86.7087 9.17676 86.5378 9.38835 86.2773 9.51855C86.2611 9.53483 86.2529 9.55111 86.2529 9.56738C86.2692 9.58366 86.2855 9.5918 86.3018 9.5918H91.6973C91.8112 9.5918 91.9007 9.54297 91.9658 9.44531C92.4378 8.77799 92.8447 8.12695 93.1865 7.49219C93.3818 7.11784 93.6667 6.84115 94.041 6.66211C94.3014 6.5319 94.5618 6.4668 94.8223 6.4668C94.9525 6.4668 95.0827 6.47493 95.2129 6.49121L95.7988 6.6377C96.1406 6.7028 96.3685 6.89811 96.4824 7.22363C96.5312 7.33757 96.5557 7.4515 96.5557 7.56543C96.5557 7.74447 96.4987 7.9235 96.3848 8.10254C96.0104 8.6071 95.6605 9.05469 95.335 9.44531C95.3024 9.47786 95.2943 9.51042 95.3105 9.54297C95.3268 9.57552 95.3512 9.5918 95.3838 9.5918H99.4365C99.8271 9.5918 100.153 9.73014 100.413 10.0068ZM109.422 20.9199C109.292 20.9199 109.227 20.985 109.227 21.1152V22.0918C109.227 22.222 109.292 22.2871 109.422 22.2871H119.676C119.79 22.2871 119.847 22.222 119.847 22.0918V21.1152C119.847 20.985 119.79 20.9199 119.676 20.9199H109.422ZM109.422 17.3799C109.292 17.3799 109.227 17.4368 109.227 17.5508V18.5762C109.227 18.7064 109.292 18.7715 109.422 18.7715H119.676C119.79 18.7715 119.847 18.7064 119.847 18.5762V17.5508C119.847 17.4368 119.79 17.3799 119.676 17.3799H109.422ZM109.422 13.8887C109.292 13.8887 109.227 13.9538 109.227 14.084V15.0605C109.227 15.1908 109.292 15.2559 109.422 15.2559H119.676C119.79 15.2559 119.847 15.1908 119.847 15.0605V14.084C119.847 13.9538 119.79 13.8887 119.676 13.8887H109.422ZM123.118 23.1172C123.118 23.5078 122.972 23.8496 122.679 24.1426C122.402 24.4193 122.068 24.5576 121.678 24.5576H118.504C118.488 24.5576 118.479 24.5658 118.479 24.582C118.479 24.5983 118.488 24.6064 118.504 24.6064C120.799 25.4365 122.833 26.2422 124.607 27.0234C124.933 27.1699 125.096 27.4222 125.096 27.7803C125.096 28.057 124.974 28.2767 124.729 28.4395L124.168 28.8057C123.81 29.0498 123.403 29.18 122.947 29.1963C122.915 29.1963 122.882 29.1963 122.85 29.1963C122.443 29.1963 122.06 29.1068 121.702 28.9277C120.319 28.2116 118.772 27.528 117.063 26.877C116.771 26.7467 116.591 26.527 116.526 26.2178C116.51 26.1527 116.502 26.0957 116.502 26.0469C116.502 25.8027 116.6 25.5911 116.795 25.4121L117.649 24.6797C117.682 24.6634 117.69 24.639 117.674 24.6064C117.658 24.5739 117.641 24.5576 117.625 24.5576H111.326C111.294 24.5576 111.269 24.5739 111.253 24.6064C111.237 24.639 111.245 24.6634 111.277 24.6797L112.181 25.3877C112.425 25.583 112.547 25.8271 112.547 26.1201C112.547 26.5107 112.376 26.7874 112.034 26.9502C110.407 27.764 108.559 28.5046 106.492 29.1719C106.281 29.237 106.069 29.2695 105.857 29.2695C105.662 29.2695 105.459 29.237 105.247 29.1719C104.84 29.0417 104.482 28.8138 104.173 28.4883C104.14 28.4395 104.1 28.3906 104.051 28.3418C103.888 28.1628 103.807 27.9674 103.807 27.7559C103.807 27.6745 103.823 27.5931 103.855 27.5117C103.937 27.2025 104.132 26.999 104.441 26.9014C105.206 26.6572 106.004 26.3724 106.834 26.0469C108.104 25.5749 109.178 25.111 110.057 24.6553C110.089 24.639 110.097 24.6227 110.081 24.6064C110.081 24.5739 110.073 24.5576 110.057 24.5576H107.566C107.176 24.5576 106.834 24.4193 106.541 24.1426C106.264 23.8496 106.126 23.5078 106.126 23.1172V13.0586C106.126 12.668 106.264 12.3343 106.541 12.0576C106.834 11.7646 107.176 11.6182 107.566 11.6182H112.303C112.417 11.6182 112.49 11.5612 112.522 11.4473C112.588 11.0892 112.653 10.6986 112.718 10.2754C112.734 10.1615 112.677 10.1045 112.547 10.1045H105.32C104.946 10.1045 104.629 9.97428 104.368 9.71387C104.108 9.45345 103.978 9.13607 103.978 8.76172C103.978 8.38737 104.108 8.06999 104.368 7.80957C104.629 7.54915 104.946 7.41895 105.32 7.41895H123.533C123.908 7.41895 124.225 7.54915 124.485 7.80957C124.746 8.06999 124.876 8.38737 124.876 8.76172C124.876 9.13607 124.746 9.45345 124.485 9.71387C124.225 9.97428 123.908 10.1045 123.533 10.1045H116.404C116.274 10.1045 116.193 10.1615 116.16 10.2754C116.079 10.5521 115.949 10.9427 115.77 11.4473C115.753 11.4961 115.753 11.5368 115.77 11.5693C115.802 11.6019 115.835 11.6182 115.867 11.6182H121.678C122.068 11.6182 122.402 11.7646 122.679 12.0576C122.972 12.3343 123.118 12.668 123.118 13.0586V23.1172Z" fill="#3B4446"/>
<defs>
<clipPath id="clip0_145_124">
<rect x="20" y="9" width="20" height="20" rx="2" transform="rotate(90 20 9)" fill="white"/>
</clipPath>
</defs>
</svg>
