<svg width="393" height="75" viewBox="0 0 393 75" fill="none" xmlns="http://www.w3.org/2000/svg">
<path d="M18.75 45.3438C18.3333 45.3438 18.125 45.5521 18.125 45.9688V49.0938C18.125 49.5104 18.3333 49.7188 18.75 49.7188H51.5625C51.9271 49.7188 52.1094 49.5104 52.1094 49.0938V45.9688C52.1094 45.5521 51.9271 45.3438 51.5625 45.3438H18.75ZM18.75 34.0156C18.3333 34.0156 18.125 34.1979 18.125 34.5625V37.8438C18.125 38.2604 18.3333 38.4688 18.75 38.4688H51.5625C51.9271 38.4688 52.1094 38.2604 52.1094 37.8438V34.5625C52.1094 34.1979 51.9271 34.0156 51.5625 34.0156H18.75ZM18.75 22.8438C18.3333 22.8438 18.125 23.0521 18.125 23.4688V26.5938C18.125 27.0104 18.3333 27.2188 18.75 27.2188H51.5625C51.9271 27.2188 52.1094 27.0104 52.1094 26.5938V23.4688C52.1094 23.0521 51.9271 22.8438 51.5625 22.8438H18.75ZM62.5781 52.375C62.5781 53.625 62.1094 54.7188 61.1719 55.6562C60.2865 56.5417 59.2188 56.9844 57.9688 56.9844H47.8125C47.7604 56.9844 47.7344 57.0104 47.7344 57.0625C47.7344 57.1146 47.7604 57.1406 47.8125 57.1406C55.1562 59.7969 61.6667 62.375 67.3438 64.875C68.3854 65.3438 68.9062 66.151 68.9062 67.2969C68.9062 68.1823 68.5156 68.8854 67.7344 69.4062L65.9375 70.5781C64.7917 71.3594 63.4896 71.776 62.0312 71.8281C61.9271 71.8281 61.8229 71.8281 61.7188 71.8281C60.4167 71.8281 59.1927 71.5417 58.0469 70.9688C53.6198 68.6771 48.6719 66.4896 43.2031 64.4062C42.2656 63.9896 41.6927 63.2865 41.4844 62.2969C41.4323 62.0885 41.4062 61.9062 41.4062 61.75C41.4062 60.9688 41.7188 60.2917 42.3438 59.7188L45.0781 57.375C45.1823 57.3229 45.2083 57.2448 45.1562 57.1406C45.1042 57.0365 45.0521 56.9844 45 56.9844H24.8438C24.7396 56.9844 24.6615 57.0365 24.6094 57.1406C24.5573 57.2448 24.5833 57.3229 24.6875 57.375L27.5781 59.6406C28.3594 60.2656 28.75 61.0469 28.75 61.9844C28.75 63.2344 28.2031 64.1198 27.1094 64.6406C21.901 67.2448 15.9896 69.6146 9.375 71.75C8.69792 71.9583 8.02083 72.0625 7.34375 72.0625C6.71875 72.0625 6.06771 71.9583 5.39062 71.75C4.08854 71.3333 2.94271 70.6042 1.95312 69.5625C1.84896 69.4062 1.71875 69.25 1.5625 69.0938C1.04167 68.5208 0.78125 67.8958 0.78125 67.2188C0.78125 66.9583 0.833333 66.6979 0.9375 66.4375C1.19792 65.4479 1.82292 64.7969 2.8125 64.4844C5.26042 63.7031 7.8125 62.7917 10.4688 61.75C14.5312 60.2396 17.9688 58.7552 20.7812 57.2969C20.8854 57.2448 20.9115 57.1927 20.8594 57.1406C20.8594 57.0365 20.8333 56.9844 20.7812 56.9844H12.8125C11.5625 56.9844 10.4688 56.5417 9.53125 55.6562C8.64583 54.7188 8.20312 53.625 8.20312 52.375V20.1875C8.20312 18.9375 8.64583 17.8698 9.53125 16.9844C10.4688 16.0469 11.5625 15.5781 12.8125 15.5781H27.9688C28.3333 15.5781 28.5677 15.3958 28.6719 15.0312C28.8802 13.8854 29.0885 12.6354 29.2969 11.2812C29.349 10.9167 29.1667 10.7344 28.75 10.7344H5.625C4.42708 10.7344 3.41146 10.3177 2.57812 9.48438C1.74479 8.65104 1.32812 7.63542 1.32812 6.4375C1.32812 5.23958 1.74479 4.22396 2.57812 3.39062C3.41146 2.55729 4.42708 2.14062 5.625 2.14062H63.9062C65.1042 2.14062 66.1198 2.55729 66.9531 3.39062C67.7865 4.22396 68.2031 5.23958 68.2031 6.4375C68.2031 7.63542 67.7865 8.65104 66.9531 9.48438C66.1198 10.3177 65.1042 10.7344 63.9062 10.7344H41.0938C40.6771 10.7344 40.4167 10.9167 40.3125 11.2812C40.0521 12.1667 39.6354 13.4167 39.0625 15.0312C39.0104 15.1875 39.0104 15.3177 39.0625 15.4219C39.1667 15.526 39.2708 15.5781 39.375 15.5781H57.9688C59.2188 15.5781 60.2865 16.0469 61.1719 16.9844C62.1094 17.8698 62.5781 18.9375 62.5781 20.1875V52.375ZM137.188 60.3438C137.604 60.3438 137.812 60.1354 137.812 59.7188V28.625C137.812 28.2083 137.604 28 137.188 28H129.688C129.323 28 129.141 28.2083 129.141 28.625V59.7188C129.141 60.1354 129.323 60.3438 129.688 60.3438H137.188ZM92.1875 28C91.8229 28 91.6406 28.2083 91.6406 28.625V59.7188C91.6406 60.1354 91.8229 60.3438 92.1875 60.3438H99.2188C99.5833 60.3438 99.7656 60.1354 99.7656 59.7188V28.625C99.7656 28.2083 99.5833 28 99.2188 28H92.1875ZM120 33.4688C120.417 33.4688 120.625 33.2604 120.625 32.8438V28.625C120.625 28.2083 120.417 28 120 28H108.906C108.542 28 108.359 28.2083 108.359 28.625V32.8438C108.359 33.2604 108.542 33.4688 108.906 33.4688H120ZM108.906 54.4062C108.542 54.4062 108.359 54.6146 108.359 55.0312V59.7188C108.359 60.1354 108.542 60.3438 108.906 60.3438H120C120.417 60.3438 120.625 60.1354 120.625 59.7188V55.0312C120.625 54.6146 120.417 54.4062 120 54.4062H108.906ZM120 46.9844C120.417 46.9844 120.625 46.8021 120.625 46.4375V41.4375C120.625 41.0729 120.417 40.8906 120 40.8906H108.906C108.542 40.8906 108.359 41.0729 108.359 41.4375V46.4375C108.359 46.8021 108.542 46.9844 108.906 46.9844H120ZM149.844 4.32812C150.729 5.21354 151.172 6.28125 151.172 7.53125C151.172 8.72917 150.729 9.77083 149.844 10.6562C148.958 11.5417 147.917 11.9844 146.719 11.9844H119.844C119.427 11.9844 119.167 12.1667 119.062 12.5312C118.854 13.2604 118.542 14.25 118.125 15.5C117.76 16.8021 117.474 17.8438 117.266 18.625C117.214 18.7292 117.24 18.8594 117.344 19.0156C117.448 19.1198 117.552 19.1719 117.656 19.1719H142.891C144.141 19.1719 145.208 19.6406 146.094 20.5781C147.031 21.4635 147.5 22.5312 147.5 23.7812V68.5469C147.5 69.7969 147.031 70.8646 146.094 71.75C145.208 72.6875 144.141 73.1562 142.891 73.1562H141.406C140.417 73.1562 139.557 72.7917 138.828 72.0625C138.151 71.3854 137.812 70.5521 137.812 69.5625C137.812 69.25 137.656 69.0938 137.344 69.0938H92.1094C91.7969 69.0938 91.6406 69.25 91.6406 69.5625C91.6406 70.5521 91.276 71.3854 90.5469 72.0625C89.8698 72.7917 89.0365 73.1562 88.0469 73.1562H87.0312C85.7812 73.1562 84.6875 72.6875 83.75 71.75C82.8646 70.8646 82.4219 69.7969 82.4219 68.5469V23.7812C82.4219 22.5312 82.8646 21.4635 83.75 20.5781C84.6875 19.6406 85.7812 19.1719 87.0312 19.1719H106.562C106.927 19.1719 107.161 18.9896 107.266 18.625C107.734 16.1771 108.073 14.1458 108.281 12.5312C108.333 12.1667 108.177 11.9844 107.812 11.9844H83.5938C82.3958 11.9844 81.3542 11.5417 80.4688 10.6562C79.5833 9.77083 79.1406 8.72917 79.1406 7.53125C79.1406 6.28125 79.5833 5.21354 80.4688 4.32812C81.3542 3.44271 82.3958 3 83.5938 3H146.719C147.917 3 148.958 3.44271 149.844 4.32812ZM200.234 30.4219C200.234 30.5781 200.286 30.6823 200.391 30.7344C200.495 30.7865 200.573 30.7604 200.625 30.6562L202.578 29.0156C203.62 28.1823 204.818 27.7396 206.172 27.6875C206.276 27.6875 206.354 27.6875 206.406 27.6875C207.656 27.6875 208.802 28.0521 209.844 28.7812C218.542 35.1875 225.104 40.4219 229.531 44.4844C230.365 45.3177 230.781 46.3333 230.781 47.5312C230.781 48.8333 230.286 49.9271 229.297 50.8125L228.125 51.9844C227.24 52.7656 226.224 53.1562 225.078 53.1562C224.974 53.1562 224.87 53.1302 224.766 53.0781C223.516 53.026 222.448 52.5573 221.562 51.6719C216.51 46.5677 209.531 40.5781 200.625 33.7031C200.573 33.651 200.495 33.651 200.391 33.7031C200.286 33.7552 200.234 33.8333 200.234 33.9375V70.1875C200.234 71.4375 199.766 72.5052 198.828 73.3906C197.943 74.3281 196.875 74.7969 195.625 74.7969H194.375C193.125 74.7969 192.031 74.3281 191.094 73.3906C190.208 72.5052 189.766 71.4375 189.766 70.1875V36.3594C189.766 36.2552 189.714 36.1771 189.609 36.125C189.557 36.0729 189.479 36.099 189.375 36.2031C182.812 43.1823 175.807 48.8594 168.359 53.2344C167.63 53.651 166.849 53.8594 166.016 53.8594C165.651 53.8594 165.26 53.8073 164.844 53.7031C163.594 53.3906 162.578 52.6875 161.797 51.5938C161.432 51.1771 161.094 50.7604 160.781 50.3438C160.26 49.6146 160 48.8594 160 48.0781C160 47.8177 160.026 47.5312 160.078 47.2188C160.286 46.125 160.885 45.2917 161.875 44.7188C167.969 41.3333 173.62 37.0885 178.828 31.9844C184.089 26.8802 188.464 21.5156 191.953 15.8906C192.057 15.7865 192.057 15.6823 191.953 15.5781C191.901 15.4219 191.823 15.3438 191.719 15.3438H165C163.698 15.3438 162.604 14.901 161.719 14.0156C160.833 13.1302 160.391 12.0365 160.391 10.7344V10.1875C160.391 8.9375 160.833 7.86979 161.719 6.98438C162.604 6.04688 163.698 5.57812 165 5.57812H225.078C226.38 5.57812 227.474 6.04688 228.359 6.98438C229.245 7.86979 229.688 8.9375 229.688 10.1875V10.7344C229.688 12.0365 229.245 13.1302 228.359 14.0156C227.474 14.901 226.38 15.3438 225.078 15.3438H205.391C205.026 15.3438 204.74 15.526 204.531 15.8906C203.438 17.8698 202.109 19.9792 200.547 22.2188C200.339 22.5312 200.234 22.8958 200.234 23.3125V30.4219ZM258.906 34.6406C258.49 34.6406 258.281 34.8229 258.281 35.1875V38.9375C258.281 39.3542 258.49 39.5625 258.906 39.5625H291.094C291.51 39.5625 291.719 39.3542 291.719 38.9375V35.1875C291.719 34.8229 291.51 34.6406 291.094 34.6406H258.906ZM258.906 21.9062C258.49 21.9062 258.281 22.1146 258.281 22.5312V26.2812C258.281 26.6458 258.49 26.8281 258.906 26.8281H291.094C291.51 26.8281 291.719 26.6458 291.719 26.2812V22.5312C291.719 22.1146 291.51 21.9062 291.094 21.9062H258.906ZM258.906 9.25C258.49 9.25 258.281 9.45833 258.281 9.875V13.625C258.281 13.9896 258.49 14.1719 258.906 14.1719H291.094C291.51 14.1719 291.719 13.9896 291.719 13.625V9.875C291.719 9.45833 291.51 9.25 291.094 9.25H258.906ZM291.875 63.4688H300.234C301.589 63.4688 302.474 62.8438 302.891 61.5938C303.151 60.8646 303.359 59.4844 303.516 57.4531C303.62 56.4115 304.115 55.6562 305 55.1875C305.521 54.9271 306.042 54.7969 306.562 54.7969C306.979 54.7969 307.396 54.901 307.812 55.1094C307.917 55.1094 308.021 55.1354 308.125 55.1875C309.375 55.7083 310.391 56.5156 311.172 57.6094C311.745 58.4948 312.031 59.4323 312.031 60.4219C312.031 60.6823 312.005 60.9427 311.953 61.2031C311.38 65.0052 310.521 67.6875 309.375 69.25C307.812 71.4375 305.052 72.5312 301.094 72.5312H290.547C285.859 72.5312 282.708 71.6979 281.094 70.0312C279.531 68.3646 278.75 65.2396 278.75 60.6562V48.4688C278.75 48.1042 278.542 47.9219 278.125 47.9219H269.688C269.271 47.9219 269.036 48.1042 268.984 48.4688C268.516 51.6979 267.865 54.4583 267.031 56.75C266.094 59.1458 264.661 61.4635 262.734 63.7031C260.859 65.9427 258.281 67.8438 255 69.4062C252.812 70.5 250.26 71.4635 247.344 72.2969C246.875 72.4531 246.406 72.5312 245.938 72.5312C245.208 72.5312 244.479 72.349 243.75 71.9844C242.552 71.4115 241.589 70.526 240.859 69.3281C240.807 69.224 240.755 69.1458 240.703 69.0938C240.599 68.9375 240.521 68.8073 240.469 68.7031C240.104 68.1302 239.922 67.5573 239.922 66.9844C239.922 66.6198 240 66.2552 240.156 65.8906C240.469 64.901 241.146 64.276 242.188 64.0156C245.417 63.1823 248.073 62.1927 250.156 61.0469C253.177 59.4323 255.26 57.6354 256.406 55.6562C257.5 53.7812 258.281 51.3854 258.75 48.4688C258.802 48.1042 258.646 47.9219 258.281 47.9219H253.672C252.422 47.9219 251.328 47.4792 250.391 46.5938C249.505 45.6562 249.062 44.5625 249.062 43.3125V5.5C249.062 4.25 249.505 3.18229 250.391 2.29688C251.328 1.35938 252.422 0.890625 253.672 0.890625H296.797C298.047 0.890625 299.115 1.35938 300 2.29688C300.938 3.18229 301.406 4.25 301.406 5.5V43.3125C301.406 44.5625 300.938 45.6562 300 46.5938C299.115 47.4792 298.047 47.9219 296.797 47.9219H288.906C288.542 47.9219 288.359 48.1042 288.359 48.4688V60.5781C288.359 61.8802 288.542 62.6875 288.906 63C289.323 63.3125 290.312 63.4688 291.875 63.4688ZM340.781 58.8594C341.042 57.9219 341.589 57.2188 342.422 56.75C342.995 56.3854 343.594 56.2031 344.219 56.2031C344.479 56.2031 344.74 56.2292 345 56.2812C345.938 56.4896 346.641 56.9844 347.109 57.7656C347.422 58.2865 347.578 58.8333 347.578 59.4062C347.578 59.7188 347.526 60.0312 347.422 60.3438C346.484 63.3646 345.443 66.125 344.297 68.625C343.932 69.4583 343.281 70.0052 342.344 70.2656C341.979 70.3698 341.615 70.4219 341.25 70.4219C340.729 70.4219 340.208 70.3177 339.688 70.1094C338.906 69.6927 338.359 69.0417 338.047 68.1562C337.943 67.7917 337.891 67.4531 337.891 67.1406C337.891 66.6198 338.021 66.125 338.281 65.6562C339.219 63.625 340.052 61.3594 340.781 58.8594ZM357.5 59.5625C357.292 58.8333 357.37 58.1302 357.734 57.4531C358.099 56.724 358.646 56.2552 359.375 56.0469C360.104 55.7865 360.807 55.8385 361.484 56.2031C362.214 56.5677 362.708 57.1146 362.969 57.8438C363.698 59.9792 364.297 62.0885 364.766 64.1719C364.818 64.4323 364.844 64.6927 364.844 64.9531C364.844 65.5781 364.688 66.151 364.375 66.6719C363.906 67.5052 363.229 68.0781 362.344 68.3906C361.615 68.7031 360.885 68.651 360.156 68.2344C359.479 67.8177 359.089 67.1927 358.984 66.3594C358.62 64.1719 358.125 61.9062 357.5 59.5625ZM373.828 60.5781C373.411 60.5781 373.203 60.7604 373.203 61.125V64.3281C373.203 64.6927 373.411 64.875 373.828 64.875H377.266C377.682 64.875 377.891 64.6927 377.891 64.3281V61.125C377.891 60.7604 377.682 60.5781 377.266 60.5781H373.828ZM377.266 43.3125C377.682 43.3125 377.891 43.1042 377.891 42.6875V39.875C377.891 39.4583 377.682 39.25 377.266 39.25H373.828C373.411 39.25 373.203 39.4583 373.203 39.875V42.6875C373.203 43.1042 373.411 43.3125 373.828 43.3125H377.266ZM377.266 54.0156C377.682 54.0156 377.891 53.8073 377.891 53.3906V50.4219C377.891 50.0573 377.682 49.875 377.266 49.875H373.828C373.411 49.875 373.203 50.0573 373.203 50.4219V53.3906C373.203 53.8073 373.411 54.0156 373.828 54.0156H377.266ZM368.594 15.6562C368.958 15.6562 369.141 15.474 369.141 15.1094V10.7344C369.141 10.3698 368.958 10.1875 368.594 10.1875H364.453C364.089 10.1875 363.906 10.3698 363.906 10.7344V15.1094C363.906 15.474 364.089 15.6562 364.453 15.6562H368.594ZM357.188 15.6562C357.604 15.6562 357.812 15.474 357.812 15.1094V10.7344C357.812 10.3698 357.604 10.1875 357.188 10.1875H353.203C352.786 10.1875 352.578 10.3698 352.578 10.7344V15.1094C352.578 15.474 352.786 15.6562 353.203 15.6562H357.188ZM375.781 10.1875C375.365 10.1875 375.156 10.3698 375.156 10.7344V15.1094C375.156 15.474 375.365 15.6562 375.781 15.6562H380.078C380.495 15.6562 380.703 15.474 380.703 15.1094V10.7344C380.703 10.3698 380.495 10.1875 380.078 10.1875H375.781ZM331.797 46.0469C332.161 46.0469 332.344 45.8646 332.344 45.5V16.125C332.344 15.7083 332.161 15.5 331.797 15.5H328.047C327.682 15.5 327.5 15.7083 327.5 16.125V45.5C327.5 45.8646 327.682 46.0469 328.047 46.0469H331.797ZM388.828 64.875C389.818 64.875 390.651 65.2135 391.328 65.8906C392.005 66.5677 392.344 67.401 392.344 68.3906C392.344 69.3802 392.005 70.2135 391.328 70.8906C390.651 71.5677 389.818 71.9062 388.828 71.9062H373.594C373.333 71.9062 373.203 72.0104 373.203 72.2188C373.203 72.9479 372.943 73.5469 372.422 74.0156C371.953 74.5365 371.38 74.7969 370.703 74.7969H369.609C368.62 74.7969 367.76 74.4323 367.031 73.7031C366.354 73.026 366.016 72.1927 366.016 71.2031V46.0469C366.016 45.6302 365.885 45.2917 365.625 45.0312C365.104 44.4062 364.557 43.8073 363.984 43.2344C363.099 42.2969 362.578 41.1771 362.422 39.875C362.422 39.6667 362.422 39.4583 362.422 39.25C362.422 38.2083 362.708 37.2448 363.281 36.3594C365.729 32.401 367.708 27.9219 369.219 22.9219C369.271 22.8177 369.245 22.7135 369.141 22.6094C369.089 22.4531 368.984 22.375 368.828 22.375H352.969C352.917 22.375 352.891 22.401 352.891 22.4531C352.891 22.5052 352.917 22.5573 352.969 22.6094C353.854 22.974 354.453 23.625 354.766 24.5625C354.87 24.9271 354.922 25.2656 354.922 25.5781C354.922 26.151 354.766 26.724 354.453 27.2969C352.526 30.3177 351.12 32.5052 350.234 33.8594C349.974 34.1719 350 34.4583 350.312 34.7188C350.885 35.3958 351.328 35.9427 351.641 36.3594C351.901 36.6719 352.135 36.6458 352.344 36.2812C353.385 34.6667 354.297 33.1302 355.078 31.6719C355.599 30.7865 356.328 30.1875 357.266 29.875C357.682 29.7708 358.073 29.7188 358.438 29.7188C359.01 29.7188 359.557 29.849 360.078 30.1094C360.911 30.526 361.458 31.2031 361.719 32.1406C361.771 32.401 361.797 32.6615 361.797 32.9219C361.797 33.5469 361.589 34.1458 361.172 34.7188C357.995 39.1458 355.208 42.8438 352.812 45.8125C352.76 45.8646 352.76 45.9427 352.812 46.0469C352.865 46.151 352.943 46.2031 353.047 46.2031L356.797 46.125C357.057 46.0729 357.135 45.9427 357.031 45.7344C356.719 45.0573 356.693 44.3802 356.953 43.7031C357.266 43.026 357.76 42.5573 358.438 42.2969C359.167 42.0365 359.87 42.0625 360.547 42.375C361.224 42.6354 361.719 43.1042 362.031 43.7812C362.969 45.9167 363.724 47.9219 364.297 49.7969C364.505 50.6302 364.427 51.4375 364.062 52.2188C363.698 52.9479 363.125 53.4688 362.344 53.7812L361.484 54.1719C361.016 54.3802 360.547 54.3542 360.078 54.0938C359.661 53.8333 359.401 53.4688 359.297 53C359.245 52.7917 359.141 52.7135 358.984 52.7656L356.719 52.9219C356.302 52.9219 356.094 53.1302 356.094 53.5469V71.3594C356.094 72.349 355.729 73.1823 355 73.8594C354.323 74.5885 353.49 74.9531 352.5 74.9531C351.51 74.9531 350.651 74.5885 349.922 73.8594C349.245 73.1823 348.906 72.349 348.906 71.3594V54.0156C348.906 53.651 348.724 53.4688 348.359 53.4688L344.844 53.625C344.74 53.625 344.661 53.625 344.609 53.625C343.672 53.625 342.839 53.3125 342.109 52.6875C341.276 51.9583 340.859 51.0208 340.859 49.875C340.859 49.0417 341.172 48.2865 341.797 47.6094C342.422 46.8802 343.229 46.5156 344.219 46.5156H344.609C344.922 46.5156 345.182 46.3594 345.391 46.0469C346.432 44.7969 347.135 43.9115 347.5 43.3906C347.76 43.026 347.76 42.6875 347.5 42.375C345.938 40.3438 343.594 37.7396 340.469 34.5625C340.365 34.5104 340.26 34.5104 340.156 34.5625C340.104 34.5625 340.078 34.6146 340.078 34.7188V49.9531C340.078 51.2031 339.609 52.2969 338.672 53.2344C337.786 54.1198 336.719 54.5625 335.469 54.5625H328.047C327.682 54.5625 327.5 54.7448 327.5 55.1094V56.75C327.5 57.7917 327.135 58.6771 326.406 59.4062C325.677 60.1354 324.792 60.5 323.75 60.5C322.708 60.5 321.823 60.1354 321.094 59.4062C320.417 58.6771 320.078 57.7917 320.078 56.75V11.6719C320.078 10.3698 320.521 9.27604 321.406 8.39062C322.292 7.50521 323.385 7.0625 324.688 7.0625H335.469C336.719 7.0625 337.786 7.50521 338.672 8.39062C339.609 9.27604 340.078 10.3698 340.078 11.6719V33.3906C340.078 33.4948 340.104 33.5729 340.156 33.625C340.26 33.625 340.339 33.599 340.391 33.5469L342.891 30.0312C343.203 29.6146 343.594 29.3802 344.062 29.3281C344.531 29.276 344.948 29.4323 345.312 29.7969C345.417 29.901 345.521 29.875 345.625 29.7188C346.719 27.7396 347.812 25.4479 348.906 22.8438C348.958 22.7396 348.932 22.6354 348.828 22.5312C348.776 22.4271 348.698 22.375 348.594 22.375C347.5 22.375 346.562 22.0104 345.781 21.2812C345 20.5 344.609 19.5365 344.609 18.3906V8.15625C344.609 6.85417 345.052 5.76042 345.938 4.875C346.823 3.98958 347.917 3.54688 349.219 3.54688H384.453C385.755 3.54688 386.849 3.98958 387.734 4.875C388.62 5.76042 389.062 6.85417 389.062 8.15625V17.7656C389.062 19.0677 388.62 20.1615 387.734 21.0469C386.849 21.9323 385.755 22.375 384.453 22.375H371.25C371.198 22.375 371.172 22.401 371.172 22.4531C371.172 22.5052 371.198 22.5312 371.25 22.5312L372.5 22.8438C373.698 23.2083 374.609 23.9375 375.234 25.0312C375.547 25.6562 375.703 26.3073 375.703 26.9844C375.703 27.4531 375.625 27.9479 375.469 28.4688C375.104 29.4583 374.714 30.4479 374.297 31.4375C374.245 31.5938 374.245 31.724 374.297 31.8281C374.401 31.9323 374.505 31.9844 374.609 31.9844H377.578C377.995 31.9844 378.281 31.8021 378.438 31.4375C379.062 29.7188 379.661 28.026 380.234 26.3594C380.547 25.3698 381.146 24.6146 382.031 24.0938C382.604 23.7812 383.177 23.625 383.75 23.625C384.167 23.625 384.557 23.7031 384.922 23.8594C385.911 24.1719 386.589 24.7969 386.953 25.7344C387.161 26.2031 387.266 26.6458 387.266 27.0625C387.266 27.5833 387.161 28.0781 386.953 28.5469C386.38 29.6927 385.885 30.6562 385.469 31.4375C385.417 31.5938 385.417 31.724 385.469 31.8281C385.573 31.9323 385.703 31.9844 385.859 31.9844H387.578C388.62 31.9844 389.479 32.349 390.156 33.0781C390.885 33.7552 391.25 34.6146 391.25 35.6562C391.25 36.6458 390.885 37.5052 390.156 38.2344C389.479 38.9115 388.62 39.25 387.578 39.25H384.922C384.557 39.25 384.375 39.4583 384.375 39.875V42.6875C384.375 43.1042 384.557 43.3125 384.922 43.3125H387.031C387.917 43.3125 388.672 43.625 389.297 44.25C389.974 44.875 390.312 45.6562 390.312 46.5938C390.312 47.4792 389.974 48.2604 389.297 48.9375C388.672 49.5625 387.917 49.875 387.031 49.875H384.922C384.557 49.875 384.375 50.0573 384.375 50.4219V53.3906C384.375 53.8073 384.557 54.0156 384.922 54.0156H387.109C387.995 54.0156 388.75 54.3281 389.375 54.9531C390.052 55.5781 390.391 56.3594 390.391 57.2969C390.391 58.1823 390.052 58.9635 389.375 59.6406C388.75 60.2656 387.995 60.5781 387.109 60.5781H384.922C384.557 60.5781 384.375 60.7604 384.375 61.125V64.3281C384.375 64.6927 384.557 64.875 384.922 64.875H388.828Z" fill="#3B4446"/>
</svg>
