<svg width="28" height="28" viewBox="0 0 28 28" fill="none" xmlns="http://www.w3.org/2000/svg">
<path d="M19.25 7.875C19.25 12.5125 14 16.625 14 16.625C14 16.625 8.75 12.5125 8.75 7.875C8.75 4.9875 11.1125 2.625 14 2.625C16.8875 2.625 19.25 4.9875 19.25 7.875Z" stroke="#3B4446" stroke-width="1.6" stroke-miterlimit="10" stroke-linecap="round" stroke-linejoin="round"/>
<path d="M14 9.625C14.9665 9.625 15.75 8.8415 15.75 7.875C15.75 6.9085 14.9665 6.125 14 6.125C13.0335 6.125 12.25 6.9085 12.25 7.875C12.25 8.8415 13.0335 9.625 14 9.625Z" stroke="#3B4446" stroke-width="1.6" stroke-miterlimit="10" stroke-linecap="round" stroke-linejoin="round"/>
<path d="M18.9875 6.125H23.625V25.375H4.375V6.125H9.0125" stroke="#3B4446" stroke-width="1.6" stroke-miterlimit="10" stroke-linecap="round" stroke-linejoin="round"/>
<path d="M23.625 12.25L14 21.875L4.375 12.25" stroke="#3B4446" stroke-width="1.6" stroke-miterlimit="10" stroke-linecap="round" stroke-linejoin="round"/>
<path d="M17.5 25.375L11.375 19.25" stroke="#3B4446" stroke-width="1.6" stroke-miterlimit="10" stroke-linecap="round" stroke-linejoin="round"/>
<path d="M8.75 25.375V16.625" stroke="#3B4446" stroke-width="1.6" stroke-miterlimit="10" stroke-linecap="round" stroke-linejoin="round"/>
</svg>
