<svg width="23" height="23" viewBox="0 0 23 23" fill="none" xmlns="http://www.w3.org/2000/svg">
<path d="M2 18.55H4.07857H14.4714" stroke="current" fill="none"/>
<path d="M4.07855 18.55V6.41571C4.07855 5.31114 4.97398 4.41571 6.07855 4.41571H10.3928C11.4974 4.41571 12.3928 5.31114 12.3928 6.41571V18.55" stroke="current" fill="none"/>
<path d="M12.3929 11.4829H13.8182C14.8678 11.4829 15.7186 12.3337 15.7186 13.3833V16.4714C15.7186 17.3898 16.4631 18.1343 17.3814 18.1343V18.1343C18.2998 18.1343 19.0443 17.3898 19.0443 16.4714V4M8.23573 8.57286L6.57288 11.4829H9.89859L8.23573 14.8086M18.2129 6.07857V9.40429H19.8757V6.07857H18.2129Z" stroke="current" fill="none"/>
</svg>
