<svg width="28" height="28" viewBox="0 0 28 28" fill="none" xmlns="http://www.w3.org/2000/svg">
<g clip-path="url(#clip0_89_720)">
<path d="M5.79311 17.2184C4.95338 17.2184 4.27026 17.9015 4.27026 18.7412C4.27026 19.581 4.95338 20.2641 5.79311 20.2641C6.63283 20.2641 7.31595 19.5809 7.31595 18.7412C7.31595 17.9016 6.63283 17.2184 5.79311 17.2184ZM5.79311 19.3518C5.45641 19.3518 5.18255 19.0779 5.18255 18.7412C5.18255 18.4046 5.45641 18.1307 5.79311 18.1307C6.1298 18.1307 6.40367 18.4045 6.40367 18.7412C6.40367 19.0779 6.1298 19.3518 5.79311 19.3518Z" fill="#3B4446"/>
<path d="M21.713 17.2184C20.8733 17.2184 20.1901 17.9015 20.1901 18.7412C20.1901 19.581 20.8733 20.2641 21.713 20.2641C22.5527 20.2641 23.2358 19.5809 23.2358 18.7412C23.2358 17.9016 22.5527 17.2184 21.713 17.2184ZM21.713 19.3518C21.3763 19.3518 21.1024 19.0779 21.1024 18.7412C21.1024 18.4046 21.3763 18.1307 21.713 18.1307C22.0497 18.1307 22.3235 18.4045 22.3235 18.7412C22.3235 19.0779 22.0497 19.3518 21.713 19.3518Z" fill="#3B4446"/>
<path d="M24.8887 11.9461L20.8189 11.4811L18.6468 7.9502C17.9836 6.87201 16.7851 6.20221 15.5193 6.20221H8.13001C6.00592 6.20221 4.12862 7.63255 3.56477 9.68062L3.50712 9.89014C3.22692 10.9078 2.4218 11.7179 1.40589 12.0043C0.578143 12.2377 0 13.0014 0 13.8614V18.9101C0 19.162 0.20423 19.3663 0.456141 19.3663H2.80113C3.09045 20.7528 4.32197 21.7977 5.79311 21.7977C7.26426 21.7977 8.49578 20.7528 8.78509 19.3663H18.7211C19.0104 20.7528 20.2419 21.7977 21.713 21.7977C23.1842 21.7977 24.4157 20.7528 24.705 19.3663H27.1668C27.3987 19.3663 27.5937 19.1923 27.62 18.9618L27.9773 15.8307C28.1964 13.9086 26.811 12.166 24.8887 11.9461ZM0.912282 17.8997H2.85538C2.80411 18.0784 2.76841 18.2636 2.75053 18.454H0.912282V17.8997ZM5.79311 20.8854C4.61079 20.8854 3.64895 19.9235 3.64895 18.7412C3.64895 17.5589 4.61079 16.597 5.79311 16.597C6.97543 16.597 7.93728 17.5589 7.93728 18.7412C7.93728 19.9235 6.97543 20.8854 5.79311 20.8854ZM21.713 20.8854C20.5307 20.8854 19.5689 19.9235 19.5689 18.7412C19.5689 17.5589 20.5307 16.597 21.713 16.597C22.8954 16.597 23.8572 17.5589 23.8572 18.7412C23.8572 19.9235 22.8954 20.8854 21.713 20.8854ZM21.713 15.6847C20.6799 15.6847 19.7656 16.2005 19.2121 16.9874H11.0949C10.843 16.9874 10.6387 17.1917 10.6387 17.4436C10.6387 17.6955 10.843 17.8997 11.0949 17.8997H18.7753C18.724 18.0784 18.6883 18.2636 18.6705 18.454H8.83569C8.6904 16.9029 7.38158 15.6847 5.79311 15.6847C4.75998 15.6847 3.84563 16.2005 3.29212 16.9874H0.912282V13.8614C0.912282 13.408 1.21711 13.0054 1.65348 12.8824C2.97495 12.5098 4.02219 11.456 4.38668 10.1323L4.44433 9.92274C4.8995 8.26932 6.41517 7.11449 8.13001 7.11449H15.5193C16.4706 7.11449 17.3713 7.61789 17.8697 8.42818L20.1581 12.1481C20.2315 12.2674 20.3557 12.3464 20.4948 12.3623L24.7851 12.8524C25.7583 12.9638 26.5453 13.6026 26.8936 14.4505H25.4697C25.2178 14.4505 25.0136 14.6547 25.0136 14.9067C25.0136 15.1586 25.2178 15.3628 25.4697 15.3628H27.0861C27.0893 15.4829 27.0847 15.6046 27.0708 15.7273L26.927 16.9874H24.214C23.6605 16.2005 22.7461 15.6847 21.713 15.6847ZM24.7556 18.454C24.7377 18.2636 24.702 18.0784 24.6507 17.8997H26.8229L26.7597 18.454H24.7556Z" fill="#3B4446"/>
<path d="M15.5432 13.0895H14.5847C14.3328 13.0895 14.1285 13.2938 14.1285 13.5457C14.1285 13.7976 14.3328 14.0018 14.5847 14.0018H15.5432C15.7951 14.0018 15.9993 13.7976 15.9993 13.5457C15.9993 13.2938 15.7952 13.0895 15.5432 13.0895Z" fill="#3B4446"/>
<path d="M9.41754 13.5457C9.41754 13.2938 9.21331 13.0895 8.9614 13.0895H8.00289C7.75098 13.0895 7.54675 13.2938 7.54675 13.5457C7.54675 13.7976 7.75098 14.0018 8.00289 14.0018H8.9614C9.21331 14.0018 9.41754 13.7976 9.41754 13.5457Z" fill="#3B4446"/>
<path d="M9.98256 17.2689C9.90265 17.0796 9.69927 16.9606 9.49449 16.9924C9.30905 17.0213 9.15865 17.1608 9.11662 17.3437C9.02564 17.7397 9.48464 18.047 9.81847 17.8199C9.99515 17.6997 10.0641 17.4663 9.98256 17.2689C9.99412 17.2969 9.97101 17.2416 9.98256 17.2689Z" fill="#3B4446"/>
<path d="M17.395 8.72082C16.9978 8.07389 16.2791 7.672 15.5193 7.672H8.12985C6.66491 7.672 5.37044 8.6583 4.98181 10.0709L4.92446 10.28C4.77436 10.8247 4.54324 11.7603 4.53345 11.7999C4.49982 11.936 4.53072 12.08 4.61714 12.1905C4.70362 12.3009 4.83603 12.3654 4.97627 12.3654H18.8211C18.9863 12.3654 19.1387 12.276 19.2192 12.1318C19.2999 11.9875 19.2962 11.811 19.2096 11.6702L17.395 8.72082ZM12.1244 8.58422V11.453H7.92459V8.5934C7.9924 8.58744 8.06082 8.58422 8.12985 8.58422H12.1244ZM5.80408 10.5217L5.86149 10.3124C6.03543 9.68023 6.46147 9.16668 7.0123 8.86818V11.4529H5.5608C5.63774 11.1493 5.7317 10.7845 5.80408 10.5217ZM13.0366 11.453V8.58422H15.5193C15.9643 8.58422 16.3851 8.81946 16.6178 9.19849L18.0049 11.453H13.0366V11.453Z" fill="#3B4446"/>
</g>
<defs>
<clipPath id="clip0_89_720">
<rect width="28" height="28" fill="white"/>
</clipPath>
</defs>
</svg>
