<svg width="24" height="24" viewBox="0 0 24 24" fill="none" xmlns="http://www.w3.org/2000/svg">
<path d="M10.4729 17.2118H4.00037" fill="none" stroke="current" stroke-width="1.5" stroke-linecap="round" stroke-linejoin="round"/>
<path fill-rule="evenodd" clip-rule="evenodd" d="M14.5342 17.2128C14.5342 19.2546 15.2151 19.9346 17.2559 19.9346C19.2968 19.9346 19.9777 19.2546 19.9777 17.2128C19.9777 15.171 19.2968 14.491 17.2559 14.491C15.2151 14.491 14.5342 15.171 14.5342 17.2128Z" fill="none" stroke="current" stroke-width="1.5" stroke-linecap="round" stroke-linejoin="round"/>
<path d="M13.5057 6.72327H19.9773" fill="none" stroke="current" stroke-width="1.5" stroke-linecap="round" stroke-linejoin="round"/>
<path fill-rule="evenodd" clip-rule="evenodd" d="M9.44452 6.72179C9.44452 4.6809 8.76358 4 6.72268 4C4.68089 4 4 4.6809 4 6.72179C4 8.76358 4.68089 9.44356 6.72268 9.44356C8.76358 9.44356 9.44452 8.76358 9.44452 6.72179Z" fill="none" stroke="current" stroke-width="1.5" stroke-linecap="round" stroke-linejoin="round"/>
</svg>
