<svg width="32" height="32" viewBox="0 0 32 32" fill="none" xmlns="http://www.w3.org/2000/svg">
<path d="M16 12.96C19.0265 12.96 21.48 10.5065 21.48 7.48C21.48 4.45348 19.0265 2 16 2C12.9735 2 10.52 4.45348 10.52 7.48C10.52 10.5065 12.9735 12.96 16 12.96Z" fill="#7ED8FE"/>
<path d="M22.1102 30H9.88979C8.85815 30 7.86877 29.4943 7.13929 28.5941C6.40982 27.6939 6 26.473 6 25.2V25.2C6.00215 22.4744 6.88052 19.8611 8.44236 17.9338C10.0042 16.0065 12.1219 14.9226 14.3306 14.92H17.6694C19.8781 14.9226 21.9958 16.0065 23.5576 17.9338C25.1195 19.8611 25.9979 22.4744 26 25.2V25.2C26 26.473 25.5902 27.6939 24.8607 28.5941C24.1312 29.4943 23.1418 30 22.1102 30V30Z" fill="#4BA6F5"/>
</svg>
