<svg width="32" height="32" viewBox="0 0 32 32" fill="none" xmlns="http://www.w3.org/2000/svg">
<circle cx="15.5" cy="12.5" r="6.5" fill="#F7C8AE"/>
<path d="M16 0C9.22785 0 3.71836 5.5096 3.71836 12.2816C3.71836 14.9871 4.58117 17.5531 6.21339 19.7023C7.67914 21.6324 9.71636 23.1057 11.9947 23.894L14.9538 31.2916C15.125 31.7194 15.5393 31.9999 16 31.9999C16.4607 31.9999 16.875 31.7194 17.0462 31.2916L20.0053 23.894C22.2836 23.1057 24.3209 21.6324 25.7866 19.7023C27.4188 17.5531 28.2816 14.9871 28.2816 12.2816C28.2816 5.5096 22.7721 0 16 0ZM16 7.83106C18.4541 7.83106 20.4507 9.82756 20.4507 12.2818C20.4507 14.7358 18.4542 16.7326 16 16.7326C13.5459 16.7326 11.5493 14.7359 11.5493 12.2818C11.5493 9.82756 13.5459 7.83106 16 7.83106Z" fill="#E74C3C"/>
</svg>
