<svg width="32" height="32" viewBox="0 0 32 32" fill="none" xmlns="http://www.w3.org/2000/svg">
<g clip-path="url(#clip0_39_59)">
<circle cx="15.5" cy="10.5" r="6.5" fill="#F7C8AE"/>
<path d="M23.07 2.92901C19.164 -0.976988 12.836 -0.976988 8.929 2.92901C5.023 6.83301 5.023 13.167 8.929 17.07C8.929 17.07 15.995 24 15.995 32C15.995 24 23.069 17.07 23.069 17.07C26.977 13.168 26.977 6.83301 23.07 2.92901ZM15.996 14.005C13.789 14.005 12 12.216 12 10.005C12 7.79401 13.789 6.00501 15.996 6.00501C18.211 6.00501 20 7.79401 20 10.005C20 12.216 18.211 14.005 15.996 14.005Z" fill="#E74C3C"/>
</g>
<defs>
<clipPath id="clip0_39_59">
<rect width="32" height="32" fill="white"/>
</clipPath>
</defs>
</svg>
