<svg width="48" height="13" viewBox="0 0 48 13" fill="none" xmlns="http://www.w3.org/2000/svg">
<path d="M8.16797 6.60547C8.12891 6.73047 8.04297 6.80859 7.91016 6.83984C7.87109 6.85547 7.83594 6.86328 7.80469 6.86328C7.71875 6.86328 7.63672 6.83203 7.55859 6.76953C7.44141 6.67578 7.35938 6.55078 7.3125 6.39453C7.29688 6.31641 7.28906 6.24219 7.28906 6.17188C7.28906 6.09375 7.30078 6.01562 7.32422 5.9375C7.46484 5.42188 7.54688 4.75 7.57031 3.92188C7.57031 3.79688 7.61328 3.69531 7.69922 3.61719C7.79297 3.53125 7.90234 3.49609 8.02734 3.51172C8.16016 3.52734 8.26953 3.58594 8.35547 3.6875C8.44141 3.78125 8.48438 3.89062 8.48438 4.01562C8.47656 5.0625 8.37109 5.92578 8.16797 6.60547ZM2.4375 8.07031C2.49219 8.07031 2.51953 8.04297 2.51953 7.98828V2.85547C2.51953 2.80078 2.49219 2.77344 2.4375 2.77344H1.94531C1.89062 2.77344 1.86328 2.80078 1.86328 2.85547V7.98828C1.86328 8.04297 1.89062 8.07031 1.94531 8.07031H2.4375ZM7.24219 7.02734C7.35938 7.19922 7.42578 7.38672 7.44141 7.58984C7.44922 7.62109 7.45312 7.65234 7.45312 7.68359C7.45312 7.85547 7.41016 8.01953 7.32422 8.17578C7.26172 8.29297 7.16406 8.35156 7.03125 8.35156C6.90625 8.34375 6.81641 8.28125 6.76172 8.16406C6.66016 7.94531 6.55078 7.72656 6.43359 7.50781C6.43359 7.5 6.42578 7.5 6.41016 7.50781C6.40234 7.50781 6.39844 7.51172 6.39844 7.51953V11.4336C6.39844 11.5977 6.33594 11.7383 6.21094 11.8555C6.09375 11.9805 5.94922 12.043 5.77734 12.043C5.61328 12.043 5.46875 11.9805 5.34375 11.8555C5.22656 11.7383 5.16797 11.5977 5.16797 11.4336V7.87109C5.16797 7.86328 5.16406 7.85938 5.15625 7.85938C5.14844 7.85938 5.14453 7.86328 5.14453 7.87109C4.91016 8.60547 4.66797 9.22266 4.41797 9.72266C4.35547 9.83984 4.26172 9.89844 4.13672 9.89844C4.12109 9.89844 4.10938 9.89453 4.10156 9.88672C3.96094 9.87891 3.85547 9.8125 3.78516 9.6875C3.72266 9.5625 3.64844 9.42969 3.5625 9.28906C3.53125 9.23438 3.48828 9.20703 3.43359 9.20703H1.94531C1.89062 9.20703 1.86328 9.23828 1.86328 9.30078V9.67578C1.86328 9.82422 1.80859 9.95312 1.69922 10.0625C1.59766 10.1641 1.47266 10.2148 1.32422 10.2148C1.17578 10.2148 1.04688 10.1641 0.9375 10.0625C0.835938 9.95312 0.785156 9.82422 0.785156 9.67578V2.32812C0.785156 2.14062 0.851562 1.98047 0.984375 1.84766C1.11719 1.70703 1.28125 1.63672 1.47656 1.63672H2.91797C3.11328 1.63672 3.27734 1.70703 3.41016 1.84766C3.54297 1.98047 3.60938 2.14062 3.60938 2.32812V8.66797C3.60938 8.68359 3.61328 8.69141 3.62109 8.69141C3.63672 8.69141 3.64844 8.6875 3.65625 8.67969C4.14844 7.82031 4.53516 6.80078 4.81641 5.62109C4.83203 5.56641 4.80859 5.53906 4.74609 5.53906H4.57031C4.38281 5.53906 4.22266 5.47656 4.08984 5.35156C3.96484 5.21875 3.90234 5.0625 3.90234 4.88281C3.90234 4.69531 3.96484 4.53516 4.08984 4.40234C4.22266 4.26953 4.38281 4.20312 4.57031 4.20312H5.08594C5.14062 4.20312 5.16797 4.17578 5.16797 4.12109V2.73828C5.16797 2.67578 5.14062 2.65234 5.08594 2.66797C4.96094 2.68359 4.83594 2.70312 4.71094 2.72656C4.67969 2.72656 4.64844 2.72656 4.61719 2.72656C4.5 2.72656 4.39062 2.69141 4.28906 2.62109C4.15625 2.53516 4.0625 2.41797 4.00781 2.26953C3.99219 2.20703 3.98438 2.15234 3.98438 2.10547C3.98438 2.02734 4 1.95312 4.03125 1.88281C4.10156 1.76562 4.20312 1.69531 4.33594 1.67188C5.03906 1.53906 5.66797 1.38281 6.22266 1.20312C6.32422 1.16406 6.43359 1.14453 6.55078 1.14453C6.63672 1.14453 6.72266 1.15625 6.80859 1.17969C7.01172 1.22656 7.17578 1.32812 7.30078 1.48438L7.3125 1.49609C7.38281 1.58203 7.41797 1.67969 7.41797 1.78906C7.41797 1.82812 7.41406 1.875 7.40625 1.92969C7.35938 2.08594 7.25391 2.1875 7.08984 2.23438C6.97266 2.26562 6.76953 2.31641 6.48047 2.38672C6.42578 2.40234 6.39844 2.4375 6.39844 2.49219V4.12109C6.39844 4.17578 6.42578 4.20312 6.48047 4.20312H6.63281C6.8125 4.20312 6.96875 4.26953 7.10156 4.40234C7.23438 4.53516 7.30078 4.69531 7.30078 4.88281C7.30078 5.0625 7.23438 5.21875 7.10156 5.35156C6.96875 5.47656 6.8125 5.53906 6.63281 5.53906H6.48047C6.42578 5.53906 6.39844 5.57031 6.39844 5.63281V5.78516C6.39844 5.84766 6.41406 5.90234 6.44531 5.94922C6.60938 6.15234 6.875 6.51172 7.24219 7.02734ZM11.1094 6.30078C11.0703 6.48828 10.9688 6.63281 10.8047 6.73438C10.6797 6.80469 10.5547 6.83984 10.4297 6.83984C10.375 6.83984 10.3203 6.83594 10.2656 6.82812L10.125 6.79297C10.1094 6.79297 10.0938 6.80078 10.0781 6.81641C10.0625 6.82422 10.0547 6.83984 10.0547 6.86328C10.2891 8.45703 10.6875 9.625 11.25 10.3672C11.3672 10.5156 11.4258 10.6875 11.4258 10.8828C11.4258 11.0625 11.3672 11.2266 11.25 11.375C11.2422 11.3828 11.2344 11.3906 11.2266 11.3984C11.1172 11.5391 10.9805 11.6133 10.8164 11.6211C10.8008 11.6289 10.7852 11.6328 10.7695 11.6328C10.6211 11.6328 10.5 11.5703 10.4062 11.4453C9.97656 10.8359 9.64062 10.0352 9.39844 9.04297C9.39062 9.03516 9.37891 9.03125 9.36328 9.03125C9.35547 9.03125 9.35156 9.03516 9.35156 9.04297C9.07812 9.96484 8.68359 10.7969 8.16797 11.5391C8.07422 11.6641 7.95312 11.7266 7.80469 11.7266C7.79688 11.7266 7.78906 11.7266 7.78125 11.7266C7.61719 11.7188 7.48438 11.6484 7.38281 11.5156C7.25 11.3516 7.18359 11.1641 7.18359 10.9531C7.18359 10.7812 7.23047 10.625 7.32422 10.4844C7.62891 10.0156 7.87891 9.51172 8.07422 8.97266C8.27734 8.43359 8.42188 7.875 8.50781 7.29688C8.60156 6.71875 8.66016 6.19531 8.68359 5.72656C8.71484 5.25781 8.73047 4.73438 8.73047 4.15625V1.60156C8.73047 1.4375 8.78906 1.29688 8.90625 1.17969C9.02344 1.0625 9.16406 1.00391 9.32812 1.00391C9.5 1.00391 9.64453 1.0625 9.76172 1.17969C9.87891 1.29688 9.9375 1.4375 9.9375 1.60156V4.16797C9.9375 4.63672 9.92578 5.12109 9.90234 5.62109C9.94141 6.01953 9.97656 6.33203 10.0078 6.55859C10.0078 6.56641 10.0117 6.57031 10.0195 6.57031C10.0273 6.57031 10.0352 6.56641 10.043 6.55859C10.207 5.75391 10.3359 4.90234 10.4297 4.00391C10.4531 3.84766 10.5234 3.72266 10.6406 3.62891C10.7422 3.55078 10.8516 3.51172 10.9688 3.51172C11 3.51172 11.0312 3.51562 11.0625 3.52344C11.2188 3.54688 11.3438 3.625 11.4375 3.75781C11.5078 3.85938 11.543 3.96875 11.543 4.08594C11.543 4.11719 11.5391 4.15234 11.5312 4.19141C11.3594 5.11328 11.2188 5.81641 11.1094 6.30078ZM20.168 6.60547C20.1289 6.73047 20.043 6.80859 19.9102 6.83984C19.8711 6.85547 19.8359 6.86328 19.8047 6.86328C19.7188 6.86328 19.6367 6.83203 19.5586 6.76953C19.4414 6.67578 19.3594 6.55078 19.3125 6.39453C19.2969 6.31641 19.2891 6.24219 19.2891 6.17188C19.2891 6.09375 19.3008 6.01562 19.3242 5.9375C19.4648 5.42188 19.5469 4.75 19.5703 3.92188C19.5703 3.79688 19.6133 3.69531 19.6992 3.61719C19.793 3.53125 19.9023 3.49609 20.0273 3.51172C20.1602 3.52734 20.2695 3.58594 20.3555 3.6875C20.4414 3.78125 20.4844 3.89062 20.4844 4.01562C20.4766 5.0625 20.3711 5.92578 20.168 6.60547ZM14.4375 8.07031C14.4922 8.07031 14.5195 8.04297 14.5195 7.98828V2.85547C14.5195 2.80078 14.4922 2.77344 14.4375 2.77344H13.9453C13.8906 2.77344 13.8633 2.80078 13.8633 2.85547V7.98828C13.8633 8.04297 13.8906 8.07031 13.9453 8.07031H14.4375ZM19.2422 7.02734C19.3594 7.19922 19.4258 7.38672 19.4414 7.58984C19.4492 7.62109 19.4531 7.65234 19.4531 7.68359C19.4531 7.85547 19.4102 8.01953 19.3242 8.17578C19.2617 8.29297 19.1641 8.35156 19.0312 8.35156C18.9062 8.34375 18.8164 8.28125 18.7617 8.16406C18.6602 7.94531 18.5508 7.72656 18.4336 7.50781C18.4336 7.5 18.4258 7.5 18.4102 7.50781C18.4023 7.50781 18.3984 7.51172 18.3984 7.51953V11.4336C18.3984 11.5977 18.3359 11.7383 18.2109 11.8555C18.0938 11.9805 17.9492 12.043 17.7773 12.043C17.6133 12.043 17.4688 11.9805 17.3438 11.8555C17.2266 11.7383 17.168 11.5977 17.168 11.4336V7.87109C17.168 7.86328 17.1641 7.85938 17.1562 7.85938C17.1484 7.85938 17.1445 7.86328 17.1445 7.87109C16.9102 8.60547 16.668 9.22266 16.418 9.72266C16.3555 9.83984 16.2617 9.89844 16.1367 9.89844C16.1211 9.89844 16.1094 9.89453 16.1016 9.88672C15.9609 9.87891 15.8555 9.8125 15.7852 9.6875C15.7227 9.5625 15.6484 9.42969 15.5625 9.28906C15.5312 9.23438 15.4883 9.20703 15.4336 9.20703H13.9453C13.8906 9.20703 13.8633 9.23828 13.8633 9.30078V9.67578C13.8633 9.82422 13.8086 9.95312 13.6992 10.0625C13.5977 10.1641 13.4727 10.2148 13.3242 10.2148C13.1758 10.2148 13.0469 10.1641 12.9375 10.0625C12.8359 9.95312 12.7852 9.82422 12.7852 9.67578V2.32812C12.7852 2.14062 12.8516 1.98047 12.9844 1.84766C13.1172 1.70703 13.2812 1.63672 13.4766 1.63672H14.918C15.1133 1.63672 15.2773 1.70703 15.4102 1.84766C15.543 1.98047 15.6094 2.14062 15.6094 2.32812V8.66797C15.6094 8.68359 15.6133 8.69141 15.6211 8.69141C15.6367 8.69141 15.6484 8.6875 15.6562 8.67969C16.1484 7.82031 16.5352 6.80078 16.8164 5.62109C16.832 5.56641 16.8086 5.53906 16.7461 5.53906H16.5703C16.3828 5.53906 16.2227 5.47656 16.0898 5.35156C15.9648 5.21875 15.9023 5.0625 15.9023 4.88281C15.9023 4.69531 15.9648 4.53516 16.0898 4.40234C16.2227 4.26953 16.3828 4.20312 16.5703 4.20312H17.0859C17.1406 4.20312 17.168 4.17578 17.168 4.12109V2.73828C17.168 2.67578 17.1406 2.65234 17.0859 2.66797C16.9609 2.68359 16.8359 2.70312 16.7109 2.72656C16.6797 2.72656 16.6484 2.72656 16.6172 2.72656C16.5 2.72656 16.3906 2.69141 16.2891 2.62109C16.1562 2.53516 16.0625 2.41797 16.0078 2.26953C15.9922 2.20703 15.9844 2.15234 15.9844 2.10547C15.9844 2.02734 16 1.95312 16.0312 1.88281C16.1016 1.76562 16.2031 1.69531 16.3359 1.67188C17.0391 1.53906 17.668 1.38281 18.2227 1.20312C18.3242 1.16406 18.4336 1.14453 18.5508 1.14453C18.6367 1.14453 18.7227 1.15625 18.8086 1.17969C19.0117 1.22656 19.1758 1.32812 19.3008 1.48438L19.3125 1.49609C19.3828 1.58203 19.418 1.67969 19.418 1.78906C19.418 1.82812 19.4141 1.875 19.4062 1.92969C19.3594 2.08594 19.2539 2.1875 19.0898 2.23438C18.9727 2.26562 18.7695 2.31641 18.4805 2.38672C18.4258 2.40234 18.3984 2.4375 18.3984 2.49219V4.12109C18.3984 4.17578 18.4258 4.20312 18.4805 4.20312H18.6328C18.8125 4.20312 18.9688 4.26953 19.1016 4.40234C19.2344 4.53516 19.3008 4.69531 19.3008 4.88281C19.3008 5.0625 19.2344 5.21875 19.1016 5.35156C18.9688 5.47656 18.8125 5.53906 18.6328 5.53906H18.4805C18.4258 5.53906 18.3984 5.57031 18.3984 5.63281V5.78516C18.3984 5.84766 18.4141 5.90234 18.4453 5.94922C18.6094 6.15234 18.875 6.51172 19.2422 7.02734ZM23.1094 6.30078C23.0703 6.48828 22.9688 6.63281 22.8047 6.73438C22.6797 6.80469 22.5547 6.83984 22.4297 6.83984C22.375 6.83984 22.3203 6.83594 22.2656 6.82812L22.125 6.79297C22.1094 6.79297 22.0938 6.80078 22.0781 6.81641C22.0625 6.82422 22.0547 6.83984 22.0547 6.86328C22.2891 8.45703 22.6875 9.625 23.25 10.3672C23.3672 10.5156 23.4258 10.6875 23.4258 10.8828C23.4258 11.0625 23.3672 11.2266 23.25 11.375C23.2422 11.3828 23.2344 11.3906 23.2266 11.3984C23.1172 11.5391 22.9805 11.6133 22.8164 11.6211C22.8008 11.6289 22.7852 11.6328 22.7695 11.6328C22.6211 11.6328 22.5 11.5703 22.4062 11.4453C21.9766 10.8359 21.6406 10.0352 21.3984 9.04297C21.3906 9.03516 21.3789 9.03125 21.3633 9.03125C21.3555 9.03125 21.3516 9.03516 21.3516 9.04297C21.0781 9.96484 20.6836 10.7969 20.168 11.5391C20.0742 11.6641 19.9531 11.7266 19.8047 11.7266C19.7969 11.7266 19.7891 11.7266 19.7812 11.7266C19.6172 11.7188 19.4844 11.6484 19.3828 11.5156C19.25 11.3516 19.1836 11.1641 19.1836 10.9531C19.1836 10.7812 19.2305 10.625 19.3242 10.4844C19.6289 10.0156 19.8789 9.51172 20.0742 8.97266C20.2773 8.43359 20.4219 7.875 20.5078 7.29688C20.6016 6.71875 20.6602 6.19531 20.6836 5.72656C20.7148 5.25781 20.7305 4.73438 20.7305 4.15625V1.60156C20.7305 1.4375 20.7891 1.29688 20.9062 1.17969C21.0234 1.0625 21.1641 1.00391 21.3281 1.00391C21.5 1.00391 21.6445 1.0625 21.7617 1.17969C21.8789 1.29688 21.9375 1.4375 21.9375 1.60156V4.16797C21.9375 4.63672 21.9258 5.12109 21.9023 5.62109C21.9414 6.01953 21.9766 6.33203 22.0078 6.55859C22.0078 6.56641 22.0117 6.57031 22.0195 6.57031C22.0273 6.57031 22.0352 6.56641 22.043 6.55859C22.207 5.75391 22.3359 4.90234 22.4297 4.00391C22.4531 3.84766 22.5234 3.72266 22.6406 3.62891C22.7422 3.55078 22.8516 3.51172 22.9688 3.51172C23 3.51172 23.0312 3.51562 23.0625 3.52344C23.2188 3.54688 23.3438 3.625 23.4375 3.75781C23.5078 3.85938 23.543 3.96875 23.543 4.08594C23.543 4.11719 23.5391 4.15234 23.5312 4.19141C23.3594 5.11328 23.2188 5.81641 23.1094 6.30078ZM28.6172 3.10156C28.4219 3.10156 28.2578 3.03516 28.125 2.90234C27.9922 2.76953 27.9258 2.60547 27.9258 2.41016V2.12891C27.9258 2.11328 27.918 2.10547 27.9023 2.10547C27.8945 2.10547 27.8906 2.10938 27.8906 2.11719C27.6562 2.65625 27.3984 3.18359 27.1172 3.69922C27.0859 3.75391 27.0703 3.80859 27.0703 3.86328V11.3398C27.0703 11.5273 27.0039 11.6875 26.8711 11.8203C26.7383 11.9531 26.5781 12.0195 26.3906 12.0195C26.2031 12.0195 26.043 11.9531 25.9102 11.8203C25.7773 11.6875 25.7109 11.5273 25.7109 11.3398V5.97266C25.7109 5.95703 25.7031 5.94922 25.6875 5.94922C25.6797 5.94141 25.6719 5.94531 25.6641 5.96094C25.5625 6.08594 25.4609 6.21094 25.3594 6.33594C25.2734 6.4375 25.168 6.48828 25.043 6.48828C25.0195 6.48828 24.9922 6.48438 24.9609 6.47656C24.8047 6.45312 24.6914 6.36719 24.6211 6.21875C24.5742 6.13281 24.5312 6.05078 24.4922 5.97266C24.4141 5.82422 24.375 5.66797 24.375 5.50391C24.375 5.47266 24.3789 5.4375 24.3867 5.39844C24.4023 5.19531 24.4766 5.01562 24.6094 4.85938C25.4141 3.91406 26.082 2.80078 26.6133 1.51953C26.6914 1.33984 26.8164 1.20703 26.9883 1.12109C27.0898 1.07422 27.1953 1.05078 27.3047 1.05078C27.375 1.05078 27.4492 1.0625 27.5273 1.08594L27.6914 1.13281C27.832 1.17969 27.9375 1.27344 28.0078 1.41406C28.0391 1.48438 28.0547 1.55469 28.0547 1.625C28.0547 1.69531 28.0391 1.76172 28.0078 1.82422C27.9922 1.87109 28.0078 1.89453 28.0547 1.89453H30.832C30.8945 1.89453 30.9258 1.86328 30.9258 1.80078V1.54297C30.9258 1.34766 30.9922 1.18359 31.125 1.05078C31.2578 0.917969 31.4219 0.851562 31.6172 0.851562H31.6758C31.8633 0.851562 32.0234 0.917969 32.1562 1.05078C32.2969 1.18359 32.3672 1.34766 32.3672 1.54297V1.80078C32.3672 1.86328 32.3945 1.89453 32.4492 1.89453H34.9102C35.082 1.89453 35.2266 1.95312 35.3438 2.07031C35.4609 2.1875 35.5195 2.33203 35.5195 2.50391C35.5195 2.66797 35.4609 2.80859 35.3438 2.92578C35.2266 3.04297 35.082 3.10156 34.9102 3.10156H28.6172ZM30.1406 4.47266C30.0781 4.47266 30.0469 4.5 30.0469 4.55469V5.04688C30.0469 5.10156 30.0781 5.12891 30.1406 5.12891H33.2109C33.2734 5.12891 33.3047 5.10156 33.3047 5.04688V4.55469C33.3047 4.5 33.2734 4.47266 33.2109 4.47266H30.1406ZM34.7344 5.38672C34.7344 5.58203 34.668 5.74609 34.5352 5.87891C34.4023 6.01172 34.2383 6.07812 34.043 6.07812H29.3789C29.1914 6.07812 29.0273 6.01172 28.8867 5.87891C28.7539 5.74609 28.6875 5.58203 28.6875 5.38672V4.22656C28.6875 4.03906 28.7539 3.87891 28.8867 3.74609C29.0273 3.60547 29.1914 3.53516 29.3789 3.53516H34.043C34.2383 3.53516 34.4023 3.60547 34.5352 3.74609C34.668 3.87891 34.7344 4.03906 34.7344 4.22656V5.38672ZM29.8594 9.24219C29.7031 9.24219 29.5703 9.1875 29.4609 9.07812C29.3516 8.96875 29.2969 8.83594 29.2969 8.67969C29.2969 8.52344 29.3516 8.39062 29.4609 8.28125C29.5703 8.17188 29.7031 8.11719 29.8594 8.11719H33.4805C33.6367 8.11719 33.7695 8.17188 33.8789 8.28125C33.9883 8.39062 34.043 8.52344 34.043 8.67969C34.043 8.83594 33.9883 8.96875 33.8789 9.07812C33.7695 9.1875 33.6367 9.24219 33.4805 9.24219H32.4375C32.3828 9.24219 32.3555 9.27344 32.3555 9.33594V10.6484C32.3555 11 32.3086 11.2656 32.2148 11.4453C32.1289 11.6328 31.9648 11.7734 31.7227 11.8672C31.4258 11.9766 30.957 12.0391 30.3164 12.0547C30.3164 12.0547 30.3125 12.0547 30.3047 12.0547C30.1172 12.0547 29.9492 11.9922 29.8008 11.8672C29.6523 11.7422 29.5469 11.5859 29.4844 11.3984C29.4688 11.3438 29.4609 11.293 29.4609 11.2461C29.4609 11.1523 29.4922 11.0625 29.5547 10.9766C29.6406 10.8516 29.7578 10.7891 29.9062 10.7891C29.9141 10.7891 29.918 10.7891 29.918 10.7891C30.082 10.7891 30.2227 10.7891 30.3398 10.7891C30.4883 10.7891 30.6016 10.7891 30.6797 10.7891C30.7734 10.7891 30.8359 10.7773 30.8672 10.7539C30.9062 10.7227 30.9258 10.6719 30.9258 10.6016V9.33594C30.9258 9.27344 30.8945 9.24219 30.832 9.24219H29.8594ZM27.6328 7.22656C27.6328 7.03906 27.6992 6.87891 27.832 6.74609C27.9727 6.60547 28.1367 6.53516 28.3242 6.53516H34.9805C35.1758 6.53516 35.3398 6.60547 35.4727 6.74609C35.6055 6.87891 35.6719 7.03906 35.6719 7.22656V8.1875C35.6719 8.36719 35.6094 8.52344 35.4844 8.65625C35.3594 8.78125 35.2031 8.84375 35.0156 8.84375C34.8359 8.84375 34.6836 8.78125 34.5586 8.65625C34.4336 8.52344 34.3711 8.36719 34.3711 8.1875V7.71875C34.3711 7.65625 34.3398 7.625 34.2773 7.625H28.9688C28.9141 7.625 28.8867 7.65625 28.8867 7.71875V8.22266C28.8867 8.40234 28.8242 8.55469 28.6992 8.67969C28.582 8.79688 28.4336 8.85547 28.2539 8.85547C28.082 8.85547 27.9336 8.79688 27.8086 8.67969C27.6914 8.55469 27.6328 8.40234 27.6328 8.22266V7.22656ZM39.1289 7.01562C39.1289 7.07031 39.1562 7.09766 39.2109 7.09766H41.1328C41.1875 7.09766 41.2148 7.07031 41.2148 7.01562V6.45312C41.2148 6.39062 41.1875 6.35938 41.1328 6.35938H39.2109C39.1562 6.35938 39.1289 6.39062 39.1289 6.45312V7.01562ZM39.2109 4.56641C39.1562 4.56641 39.1289 4.59375 39.1289 4.64844V5.21094C39.1289 5.26562 39.1562 5.29297 39.2109 5.29297H41.1328C41.1875 5.29297 41.2148 5.26562 41.2148 5.21094V4.64844C41.2148 4.59375 41.1875 4.56641 41.1328 4.56641H39.2109ZM44.7891 4.64844C44.7891 4.59375 44.7578 4.56641 44.6953 4.56641H42.7734C42.7109 4.56641 42.6797 4.59375 42.6797 4.64844V5.21094C42.6797 5.26562 42.7109 5.29297 42.7734 5.29297H44.6953C44.7578 5.29297 44.7891 5.26562 44.7891 5.21094V4.64844ZM44.6953 7.09766C44.7578 7.09766 44.7891 7.07031 44.7891 7.01562V6.45312C44.7891 6.39062 44.7578 6.35938 44.6953 6.35938H42.7734C42.7109 6.35938 42.6797 6.39062 42.6797 6.45312V7.01562C42.6797 7.07031 42.7109 7.09766 42.7734 7.09766H44.6953ZM46.8281 8.87891C47.0078 8.87891 47.1602 8.94141 47.2852 9.06641C47.4102 9.19141 47.4727 9.34375 47.4727 9.52344C47.4727 9.70312 47.4102 9.85547 47.2852 9.98047C47.1602 10.1055 47.0078 10.168 46.8281 10.168H42.7734C42.7109 10.168 42.6797 10.1953 42.6797 10.25V11.0938C42.6797 11.2812 42.6094 11.4414 42.4688 11.5742C42.3359 11.7148 42.1758 11.7852 41.9883 11.7852H41.9062C41.7188 11.7852 41.5547 11.7148 41.4141 11.5742C41.2812 11.4414 41.2148 11.2812 41.2148 11.0938V10.25C41.2148 10.1953 41.1875 10.168 41.1328 10.168H37.2188C37.0391 10.168 36.8867 10.1055 36.7617 9.98047C36.6367 9.85547 36.5742 9.70312 36.5742 9.52344C36.5742 9.34375 36.6367 9.19141 36.7617 9.06641C36.8867 8.94141 37.0391 8.87891 37.2188 8.87891H41.1328C41.1875 8.87891 41.2148 8.85156 41.2148 8.79688V8.32812C41.2148 8.26562 41.1875 8.23438 41.1328 8.23438H38.4609C38.2734 8.23438 38.1094 8.16797 37.9688 8.03516C37.8359 7.89453 37.7695 7.73047 37.7695 7.54297V4.10938C37.7695 3.92188 37.8359 3.76172 37.9688 3.62891C38.1094 3.48828 38.2734 3.41797 38.4609 3.41797H41.1328C41.1875 3.41797 41.2148 3.39062 41.2148 3.33594V2.9375C41.2148 2.875 41.1875 2.84375 41.1328 2.84375H37.5117C37.332 2.84375 37.1797 2.78125 37.0547 2.65625C36.9297 2.53125 36.8672 2.37891 36.8672 2.19922C36.8672 2.01953 36.9297 1.86719 37.0547 1.74219C37.1797 1.61719 37.332 1.55469 37.5117 1.55469H41.1328C41.1875 1.55469 41.2148 1.52344 41.2148 1.46094V1.27344C41.2148 1.08594 41.2812 0.925781 41.4141 0.792969C41.5547 0.652344 41.7188 0.582031 41.9062 0.582031H41.9883C42.1758 0.582031 42.3359 0.652344 42.4688 0.792969C42.6094 0.925781 42.6797 1.08594 42.6797 1.27344V1.46094C42.6797 1.52344 42.7109 1.55469 42.7734 1.55469H46.4766C46.6562 1.55469 46.8086 1.61719 46.9336 1.74219C47.0586 1.86719 47.1211 2.01953 47.1211 2.19922C47.1211 2.37891 47.0586 2.53125 46.9336 2.65625C46.8086 2.78125 46.6562 2.84375 46.4766 2.84375H42.7734C42.7109 2.84375 42.6797 2.875 42.6797 2.9375V3.33594C42.6797 3.39062 42.7109 3.41797 42.7734 3.41797H45.5273C45.7148 3.41797 45.875 3.48828 46.0078 3.62891C46.1484 3.76172 46.2188 3.92188 46.2188 4.10938V7.54297C46.2188 7.73047 46.1484 7.89453 46.0078 8.03516C45.875 8.16797 45.7148 8.23438 45.5273 8.23438H42.7734C42.7109 8.23438 42.6797 8.26562 42.6797 8.32812V8.79688C42.6797 8.85156 42.7109 8.87891 42.7734 8.87891H46.8281Z" fill="#33CC99"/>
</svg>
