<svg width="27" height="27" viewBox="0 0 27 27" fill="none" xmlns="http://www.w3.org/2000/svg">
<path d="M18.1725 7.18752L6.51437 12.3344C5.85999 12.6344 6.08 13.6263 6.8 13.6263H12.375C12.4413 13.6263 12.5049 13.6526 12.5518 13.6995C12.5987 13.7464 12.625 13.81 12.625 13.8763V19.45C12.625 20.17 13.625 20.3875 13.9237 19.735L19.0625 8.07752C19.12 7.95296 19.1379 7.81375 19.1139 7.67868C19.0898 7.54361 19.0249 7.41917 18.9279 7.32215C18.8308 7.22514 18.7064 7.16021 18.5713 7.13614C18.4363 7.11206 18.2971 7.13 18.1725 7.18752Z" fill="#3B4446"/>
<path d="M25.125 13.125C25.125 6.5 19.75 1.125 13.125 1.125C6.5 1.125 1.125 6.5 1.125 13.125C1.125 19.75 6.5 25.125 13.125 25.125C19.75 25.125 25.125 19.75 25.125 13.125Z" stroke="#3B4446" stroke-width="2" stroke-miterlimit="10"/>
</svg>
