<svg width="25" height="25" viewBox="0 0 25 25" fill="none" xmlns="http://www.w3.org/2000/svg">
<path d="M12.5 0C5.59658 0 0 5.59658 0 12.5C0 19.4034 5.59658 25 12.5 25C19.4034 25 25 19.4034 25 12.5C25 5.59658 19.4034 0 12.5 0ZM12.5 22.9167C6.74717 22.9167 2.08335 18.2528 2.08335 12.5C2.08335 6.74717 6.74717 2.08335 12.5 2.08335C18.2528 2.08335 22.9167 6.74717 22.9167 12.5C22.9167 18.2528 18.2528 22.9167 12.5 22.9167Z" fill="#3B4446"/>
<path d="M13.5417 5.20837H10.4166C9.84136 5.20837 9.375 5.67473 9.375 6.25002V12.5V19.7917C9.375 20.367 9.84136 20.8333 10.4166 20.8333C10.9919 20.8333 11.4583 20.367 11.4583 19.7917V13.5417H13.5417C15.843 13.5417 17.7083 11.6763 17.7083 9.37502C17.7083 7.07371 15.843 5.20837 13.5417 5.20837ZM13.5417 11.4584H11.4583V7.29172H13.5417C14.6924 7.29167 15.625 8.22429 15.625 9.37502C15.625 10.5258 14.6924 11.4584 13.5417 11.4584Z" fill="#3B4446"/>
</svg>
