<svg width="24" height="24" viewBox="0 0 24 24" fill="none" xmlns="http://www.w3.org/2000/svg">
<path d="M12 22.11C17.5836 22.11 22.11 17.5836 22.11 12C22.11 6.41642 17.5836 1.89001 12 1.89001C6.41642 1.89001 1.89001 6.41642 1.89001 12C1.89001 17.5836 6.41642 22.11 12 22.11Z" stroke="current" fill="none" stroke-width="1.6" stroke-linecap="round" stroke-linejoin="round"/>
<path d="M10.9749 12.6794H13.0171C13.8533 12.6794 14.5286 13.3206 14.5286 14.1145C14.5286 14.9084 13.8533 15.5496 13.0171 15.5496H9.34271C8.9407 15.5496 8.61106 15.8626 8.61106 16.2443C8.61106 16.626 8.9407 16.9389 9.34271 16.9389H11.2643V18.3053C11.2643 18.687 11.594 19 11.996 19C12.398 19 12.7276 18.687 12.7276 18.3053V16.9389H13.0251C14.6653 16.9389 16 15.6718 16 14.1145C16 12.5573 14.6653 11.2901 13.0251 11.2901H10.9829C10.1467 11.2901 9.47136 10.6489 9.47136 9.85496C9.47136 9.06107 10.1467 8.41985 10.9829 8.41985H14.593C14.995 8.41985 15.3246 8.10687 15.3246 7.72519C15.3246 7.34351 14.995 7.03053 14.593 7.03053H12.7357V5.69466C12.7357 5.31298 12.406 5 12.004 5C11.602 5 11.2724 5.31298 11.2724 5.69466V7.03817H10.9749C9.33467 7.03817 8 8.30534 8 9.86259C8.00804 11.4122 9.34271 12.6794 10.9749 12.6794Z" fill="current" stroke="current" stroke-width="0.3"/>
</svg>
