<svg width="24" height="24" viewBox="0 0 24 24" fill="none" xmlns="http://www.w3.org/2000/svg">
<path d="M10.6364 12.2251H12.4789C13.2333 12.2251 13.8426 12.8344 13.8426 13.5887C13.8426 14.3431 13.2333 14.9524 12.4789 14.9524H9.16394C8.80126 14.9524 8.50386 15.2498 8.50386 15.6125C8.50386 15.9752 8.80126 16.2726 9.16394 16.2726H10.8976V17.571C10.8976 17.9337 11.195 18.2311 11.5577 18.2311C11.9203 18.2311 12.2177 17.9337 12.2177 17.571V16.2726H12.4861C13.9659 16.2726 15.17 15.0685 15.17 13.5887C15.17 12.109 13.9659 10.9049 12.4861 10.9049H10.6437C9.88931 10.9049 9.28 10.2956 9.28 9.5412C9.28 8.78681 9.88931 8.1775 10.6437 8.1775H13.9006C14.2633 8.1775 14.5607 7.8801 14.5607 7.51742C14.5607 7.15474 14.2633 6.85733 13.9006 6.85733H12.225V5.58794C12.225 5.22526 11.9276 4.92786 11.5649 4.92786C11.2022 4.92786 10.9048 5.22526 10.9048 5.58794V6.86459H10.6364C9.15669 6.86459 7.95258 8.0687 7.95258 9.54845C7.95983 11.0209 9.16394 12.2251 10.6364 12.2251Z" fill="#3B4446" stroke="#3B4446" stroke-width="0.3"/>
<path d="M11.5649 22.1625C17.4114 22.1625 22.1625 17.4041 22.1625 11.5649C22.1625 5.72569 17.4041 0.960022 11.5649 0.960022C5.72569 0.960022 0.960022 5.71843 0.960022 11.5649C0.960022 17.4114 5.71844 22.1625 11.5649 22.1625ZM11.5649 2.28019C16.686 2.28019 20.8496 6.4438 20.8496 11.5649C20.8496 16.686 16.686 20.8496 11.5649 20.8496C6.4438 20.8496 2.28019 16.686 2.28019 11.5649C2.28019 6.4438 6.4438 2.28019 11.5649 2.28019Z" fill="#3B4446" stroke="#3B4446" stroke-width="0.3"/>
</svg>
