<svg width="25" height="25" viewBox="0 0 25 25" stroke='none' fill="none" xmlns="http://www.w3.org/2000/svg">
<g clip-path="url(#clip0_158_2)">
<path d="M12.5 4.58453C8.13541 4.58453 4.58441 8.13542 4.58441 12.5C4.58441 16.8646 8.13529 20.4155 12.5 20.4155C16.8647 20.4155 20.4156 16.8646 20.4156 12.5C20.4156 8.13542 16.8647 4.58453 12.5 4.58453ZM12.5 18.6209C9.12501 18.6209 6.37912 15.8751 6.37912 12.5001C6.37912 9.12514 9.1249 6.37936 12.5 6.37936C15.8751 6.37936 18.6209 9.12514 18.6209 12.5001C18.6209 15.8751 15.8751 18.6209 12.5 18.6209Z" fill="current" stroke='none'/>
<path d="M12.4348 3.85598C12.4368 3.85598 12.439 3.85598 12.441 3.85598C12.9366 3.85263 13.3356 3.4481 13.3323 2.95253L13.3183 0.891368C13.3148 0.39567 12.9112 -0.00789895 12.4148 0.000117396C11.9193 0.00346751 11.5202 0.407994 11.5236 0.903572L11.5376 2.96473C11.5409 3.45815 11.9421 3.85598 12.4348 3.85598Z" fill="current" stroke='none'/>
<path d="M19.2008 6.60448C19.4326 6.60448 19.6642 6.51535 19.8397 6.33743L21.2872 4.87008C21.6353 4.51724 21.6313 3.94904 21.2786 3.6011C20.9257 3.25281 20.3576 3.25676 20.0096 3.6096L18.562 5.07695C18.214 5.42979 18.2179 5.99799 18.5706 6.34593C18.7455 6.51846 18.9731 6.60448 19.2008 6.60448Z" fill="current" stroke='none'/>
<path d="M24.1028 11.5236C24.1008 11.5236 24.0986 11.5236 24.0966 11.5236L22.0354 11.5376C21.5399 11.5409 21.1408 11.9454 21.1442 12.441C21.1475 12.9346 21.5486 13.3323 22.0414 13.3323C22.0435 13.3323 22.0456 13.3323 22.0476 13.3323L24.1088 13.3183C24.6044 13.3149 25.0034 12.9104 25.0001 12.4148C24.9966 11.9214 24.5955 11.5236 24.1028 11.5236Z" fill="current" stroke='none'/>
<path d="M19.923 18.5622C19.5702 18.2139 19.002 18.2178 18.6541 18.5707C18.306 18.9235 18.31 19.4917 18.6627 19.8396L20.13 21.2872C20.3048 21.4598 20.5325 21.5458 20.7602 21.5458C20.992 21.5458 21.2236 21.4567 21.3991 21.2787C21.7472 20.9259 21.7432 20.3577 21.3905 20.0098L19.923 18.5622Z" fill="current" stroke='none'/>
<path d="M12.559 21.1442C12.0634 21.1476 11.6644 21.5521 11.6677 22.0477L11.6817 24.1088C11.6851 24.6024 12.0862 25.0001 12.579 25.0001C12.581 25.0001 12.5832 25.0001 12.5852 25.0001C13.0808 24.9967 13.4798 24.5922 13.4764 24.0966L13.4625 22.0355C13.4591 21.5398 13.0527 21.1426 12.559 21.1442Z" fill="current" stroke='none'/>
<path d="M5.1604 18.6626L3.71291 20.13C3.36486 20.4828 3.36881 21.051 3.72152 21.399C3.89633 21.5715 4.12402 21.6575 4.35171 21.6575C4.58346 21.6575 4.8151 21.5684 4.99062 21.3905L6.43811 19.9231C6.78616 19.5703 6.78221 19.0021 6.4295 18.6541C6.07654 18.3059 5.50833 18.3098 5.1604 18.6626Z" fill="current" stroke='none'/>
<path d="M3.85589 12.5591C3.85254 12.0656 3.45148 11.6678 2.95865 11.6678C2.95662 11.6678 2.95447 11.6678 2.95243 11.6678L0.891393 11.6818C0.395816 11.6852 -0.0032071 12.0897 0.000143012 12.5853C0.00349313 13.0788 0.40455 13.4766 0.897376 13.4766C0.89941 13.4766 0.901563 13.4766 0.903597 13.4766L2.96476 13.4626C3.46021 13.4591 3.85924 13.0546 3.85589 12.5591Z" fill="current" stroke='none'/>
<path d="M5.077 6.43806C5.2518 6.61059 5.47949 6.69662 5.70718 6.69662C5.93894 6.69662 6.17057 6.60748 6.34609 6.42957C6.69415 6.07673 6.6902 5.50852 6.33748 5.16059L4.87001 3.71286C4.51717 3.36445 3.94897 3.36864 3.60103 3.72136C3.25298 4.07419 3.25693 4.6424 3.60965 4.99033L5.077 6.43806Z" fill="current" stroke='none'/>
</g>
<defs>
<clipPath id="clip0_158_2">
<rect width="25" height="25" fill="current"/>
</clipPath>
</defs>
</svg>
