<svg width="30" height="30" viewBox="0 0 30 30" fill="none" xmlns="http://www.w3.org/2000/svg">
<g clip-path="url(#clip0_77_565)">
<path d="M14.9996 20.5596C14.1609 20.5596 13.4579 21.2626 13.4579 22.1013C13.4579 22.94 14.1609 23.6431 14.9996 23.6431C15.8075 23.6431 16.5413 22.94 16.5043 22.1383C16.5413 21.2564 15.8445 20.5596 14.9996 20.5596Z" fill="#F79400"/>
<path d="M29.27 26.0235C30.2382 24.3523 30.2443 22.3604 29.2823 20.6953L19.6248 3.97047C18.6689 2.28689 16.9422 1.28784 15.0058 1.28784C13.0693 1.28784 11.3426 2.29306 10.3867 3.9643L0.716909 20.7076C-0.245138 22.3912 -0.238971 24.3955 0.735409 26.0667C1.69746 27.7194 3.41804 28.7123 5.34213 28.7123H24.6324C26.5627 28.7123 28.2956 27.7071 29.27 26.0235ZM27.1732 24.8148C26.6367 25.7399 25.6869 26.2887 24.6262 26.2887H5.33596C4.28758 26.2887 3.34404 25.7522 2.81984 24.8456C2.28948 23.9268 2.28332 22.829 2.81368 21.904L12.4835 5.16686C13.0077 4.24798 13.945 3.70529 15.0058 3.70529C16.0603 3.70529 17.0039 4.25415 17.5281 5.17303L27.1917 21.9102C27.7097 22.8105 27.7035 23.8959 27.1732 24.8148Z" fill="#F79400"/>
<path d="M14.6173 9.73664C13.8834 9.94632 13.427 10.6124 13.427 11.4202C13.464 11.9074 13.4949 12.4008 13.5319 12.888C13.6367 14.7442 13.7415 16.5635 13.8464 18.4197C13.8834 19.0488 14.3706 19.5051 14.9996 19.5051C15.6286 19.5051 16.122 19.0179 16.1528 18.3827C16.1528 18.0004 16.1528 17.6489 16.1898 17.2603C16.2577 16.0701 16.3317 14.8799 16.3995 13.6897C16.4365 12.9188 16.5043 12.1479 16.5413 11.3771C16.5413 11.0995 16.5043 10.8529 16.3995 10.6062C16.085 9.91548 15.3511 9.56397 14.6173 9.73664Z" fill="#F79400"/>
</g>
<defs>
<clipPath id="clip0_77_565">
<rect width="30" height="30" fill="white"/>
</clipPath>
</defs>
</svg>
