<svg width="48" height="48" viewBox="0 0 48 48" stroke="none" fill="none" xmlns="http://www.w3.org/2000/svg">
<path d="M40.8311 24.9345C40.8628 24.6849 40.8776 24.4363 40.8776 24.1896C40.8776 20.6741 38.0185 17.8125 34.5031 17.8125C33.8598 17.8125 33.2302 17.91 32.6209 18.1061C30.6875 16.467 28.2393 15.5794 25.6494 15.6486C23.9815 11.4016 19.8978 8.54578 15.226 8.54578C9.03563 8.54591 4 13.582 4 19.7714C4 23.7632 6.10551 27.39 9.46491 29.3994C9.3947 29.8316 9.35111 30.2638 9.35111 30.696C9.35111 34.5663 11.9023 37.9032 15.4963 39.0213V39.4542H35.882C40.3581 39.4542 44 35.8138 44 31.3362C44 28.8008 42.8144 26.4538 40.8311 24.9345ZM15.2259 12.1385C18.1783 12.1385 20.7914 13.8151 22.0539 16.3721C21.9502 16.4137 21.8535 16.4655 21.7501 16.5115C21.6187 16.5682 21.4886 16.6285 21.3583 16.6917C21.1046 16.8153 20.8592 16.9522 20.6187 17.0934C20.5134 17.157 20.4074 17.2138 20.3047 17.2781C19.9687 17.495 19.6417 17.7258 19.3326 17.9778C19.3159 17.9921 19.3025 18.0073 19.2874 18.0206C18.9942 18.2608 18.719 18.5213 18.4548 18.7921C18.368 18.8805 18.2888 18.9748 18.206 19.0661C18.0164 19.2741 17.8378 19.4885 17.6657 19.71C17.5813 19.8192 17.5014 19.9301 17.4203 20.0414C17.2576 20.2717 17.1055 20.5115 16.96 20.7537C16.8976 20.8605 16.8324 20.965 16.7716 21.0733C16.5796 21.4271 16.399 21.7905 16.2489 22.1697C15.9137 22.2414 15.5892 22.3393 15.2674 22.4494C15.1716 22.4829 15.077 22.5228 14.9813 22.5588C14.7549 22.6461 14.5327 22.7418 14.3146 22.8471C14.2173 22.8939 14.1193 22.9397 14.0243 22.9906C13.783 23.1194 13.5472 23.258 13.3193 23.4097C13.2666 23.4423 13.21 23.4726 13.1591 23.5084C12.8868 23.6974 12.6254 23.9019 12.3757 24.1189C12.3057 24.18 12.2397 24.2457 12.1719 24.3101C11.9917 24.4771 11.8188 24.6502 11.6524 24.832C11.5783 24.9143 11.5056 24.9975 11.4331 25.0839C11.2708 25.2764 11.1167 25.4771 10.9719 25.6842C10.9202 25.7559 10.8668 25.8228 10.8182 25.8962C10.8007 25.9239 10.7823 25.9468 10.7648 25.9721C8.7958 24.5581 7.59013 22.2679 7.59013 19.7725C7.59176 15.5618 11.0155 12.1385 15.2259 12.1385Z" stroke="none" fill="current"/>
</svg>
