<svg width="150" height="150" viewBox="0 0 150 150" fill="none" xmlns="http://www.w3.org/2000/svg">
<g clip-path="url(#clip0_199_265)">
<path d="M75 150C116.421 150 150 116.421 150 75C150 33.5786 116.421 0 75 0C33.5786 0 0 33.5786 0 75C0 116.421 33.5786 150 75 150Z" fill="#33CC99"/>
<path d="M51.5767 156.575V142.876C51.5767 140.869 50.6095 139.245 48.6007 139.245C46.5919 139.245 45.6248 140.87 45.6248 142.876V156.575H51.5767Z" fill="#FFD2BF"/>
<path d="M63.4807 156.575V142.876C63.4807 140.869 62.5136 139.246 60.5048 139.246C58.496 139.246 57.5288 140.87 57.5288 142.876V156.575H63.4807Z" fill="#FFD2BF"/>
<path d="M62.6771 145.034C47.9579 145.034 30.1275 140.405 11.1125 131.647C9.56204 130.934 8.71985 129.234 9.0844 127.571C9.44896 125.903 10.9235 124.715 12.6318 124.715C37.1403 124.715 46.6098 102.674 55.7684 81.3542C64.0802 62.0089 72.9471 42 93.2402 42C103.656 42 115.56 47.9519 123 53.9039C121.512 53.9039 116.707 55.1984 115.267 55.5823C108.375 57.4125 107.584 69.675 106.671 83.8748C105.677 99.3186 104.544 116.825 95.566 130.356C89.1944 139.958 77.8188 145.034 62.6771 145.034Z" fill="white"/>
<path d="M115.267 55.5823C115.383 55.551 115.478 55.4826 115.585 55.4394C86.6871 54.8368 103.991 164.229 9.34473 129.84C9.69291 130.614 10.2985 131.27 11.1124 131.645C30.1274 140.403 47.9608 145.032 62.677 145.032C77.8187 145.032 89.1943 139.955 95.5659 130.353C104.544 116.822 105.677 99.3171 106.671 83.8718C107.584 69.675 108.374 57.4125 115.267 55.5823Z" fill="#EBEBEB"/>
<path d="M106.005 82.1934C105.606 81.7961 105.118 81.4911 104.582 81.314C101.613 80.3275 98.4947 79.8246 95.3208 79.8246C80.3413 79.8246 66.6504 90.7568 62.0272 106.41C58.4025 118.683 60.5139 131.435 67.8169 141.396C67.9895 141.629 68.1964 141.85 68.4196 142.036L71.2289 144.376C82.1105 142.774 90.4655 138.048 95.5648 130.358C104.542 116.826 105.674 99.3216 106.668 83.8763C106.689 83.5564 106.708 83.241 106.732 82.9181L106.005 82.1934Z" fill="white"/>
<path d="M106.004 82.1933C105.606 81.796 105.117 81.491 104.582 81.3139C102.143 80.5044 99.6 80.0387 97.0124 79.8914C90.4073 98.4822 83.0864 122.445 62.8201 132.152C64.0491 135.411 65.7082 138.522 67.8137 141.396C67.9863 141.629 68.1932 141.85 68.4164 142.035L71.2257 144.376C79.3694 143.175 86.0951 140.228 91.1022 135.596C91.12 135.581 91.1349 135.564 91.1528 135.551C91.925 134.835 92.6452 134.069 93.3341 133.274C93.4532 133.133 93.5707 132.99 93.6883 132.847C94.3489 132.054 94.9813 131.231 95.5602 130.359C104.539 116.828 105.671 99.323 106.665 83.8777C106.686 83.5548 106.705 83.2393 106.727 82.9179L106.004 82.1933Z" fill="#F7F7F7"/>
<path d="M65.9956 111.343C70.6203 95.6926 84.3112 84.7604 99.2893 84.7604C101.761 84.7604 104.179 85.1547 106.539 85.7574C106.58 85.1339 106.629 84.4941 106.668 83.8736C106.689 83.5537 106.708 83.2382 106.732 82.9153L106.005 82.1922C105.606 81.7949 105.118 81.4898 104.582 81.3128C101.613 80.3262 98.4947 79.8233 95.3208 79.8233C80.3413 79.8233 66.6504 90.7555 62.0272 106.409C58.4025 118.682 60.5139 131.432 67.8169 141.395C67.9895 141.628 68.1964 141.85 68.4196 142.033L69.7007 143.106C64.1416 133.694 62.7548 122.336 65.9956 111.343Z" fill="white"/>
<path d="M67.8167 141.394C67.9893 141.628 68.1962 141.849 68.4193 142.032L69.7005 143.105C67.47 139.332 65.924 135.241 65.0669 130.989C64.3378 131.396 63.5879 131.783 62.8201 132.151C64.0521 135.408 65.7112 138.521 67.8167 141.394Z" fill="#F6F6F6"/>
<path d="M106.004 82.1933C105.605 81.796 105.117 81.4909 104.582 81.3139C102.143 80.5044 99.5999 80.0387 97.0123 79.8914C96.4141 81.5772 95.8055 83.3063 95.1851 85.0666C96.5391 84.885 97.9051 84.7615 99.2889 84.7615C101.76 84.7615 104.178 85.1558 106.54 85.7585C106.58 85.135 106.629 84.4952 106.668 83.8747C106.689 83.5518 106.708 83.2363 106.73 82.9149L106.004 82.1933Z" fill="#F6F6F6"/>
<path d="M99.8036 59.3349C99.8036 63.3435 96.5523 66.5992 92.5467 66.5992C88.5306 66.5992 85.2734 63.3435 85.2734 59.3349C85.2734 55.3233 88.5291 52.0706 92.5467 52.0706C96.5568 52.0706 99.8036 55.3233 99.8036 59.3349Z" fill="#FBACA1"/>
<path d="M93.5406 62.7645C95.998 62.7645 97.9901 60.7724 97.9901 58.315C97.9901 55.8576 95.998 53.8655 93.5406 53.8655C91.0832 53.8655 89.0911 55.8576 89.0911 58.315C89.0911 60.7724 91.0832 62.7645 93.5406 62.7645Z" fill="#7B1616"/>
<path d="M108.12 53.904C108.12 56.6092 108.739 59.164 109.816 61.4615C111.013 58.365 112.721 56.258 115.267 55.5824C116.707 55.1985 121.512 53.904 123 53.904C119.454 51.0679 114.89 48.2378 109.961 46.046C108.794 48.4193 108.12 51.0813 108.12 53.904Z" fill="#FF675E"/>
<path d="M108.59 57.9275C108.876 59.158 109.291 60.341 109.813 61.4614C109.819 61.4465 109.825 61.4346 109.833 61.4212C109.987 61.0254 110.149 60.646 110.319 60.2844C110.41 60.0969 110.505 59.9214 110.599 59.7413C110.721 59.5107 110.846 59.2875 110.975 59.0732C111.074 58.911 111.175 58.7503 111.277 58.5985C111.447 58.3471 111.629 58.112 111.813 57.8873C111.886 57.801 111.953 57.7028 112.027 57.6209C112.286 57.3308 112.563 57.0748 112.853 56.8368C112.948 56.7579 113.054 56.688 113.152 56.6151C113.377 56.4499 113.614 56.2996 113.855 56.1657C113.959 56.1077 114.064 56.0496 114.17 55.9975C114.518 55.8309 114.881 55.6851 115.264 55.5824C115.38 55.5511 115.475 55.4827 115.582 55.4396C112.895 55.3845 110.608 56.2832 108.59 57.9275Z" fill="#D97A40"/>
</g>
<defs>
<clipPath id="clip0_199_265">
<rect width="150" height="150" fill="white"/>
</clipPath>
</defs>
</svg>
