<svg width="599" height="723" viewBox="0 0 599 723" fill="none" xmlns="http://www.w3.org/2000/svg">
<path d="M241 157.5L205 170.5L187 185L180 194.5L164 212L155 231.5L141.5 241.5L136 257L101.5 270L72.5 292L41 330L13.5 370L3.5 412.5L1 452.5L19.5 500L54.5 539.5L104.5 566.5L164 581L221.5 583.5L265 571.5L302 553L327 533.5L352 493.5L368 461L374.5 417.5L363.5 363.5L342 327.5L345.5 321L352 299.5V273L338 250.5L334 217L306.5 181L276 164.5L241 157.5Z" fill="white"/>
<path d="M229.5 195.5L205 208.5H202L188.5 242.5L186.5 258L180.5 280.5L186.5 290L197 292L224.5 305H242L276 309.5L287.5 260V227.5L268.5 200.5C263.167 197.5 252.2 191.5 251 191.5C249.8 191.5 236.167 194.167 229.5 195.5Z" fill="#F79E9E"/>
<path d="M294.5 558L281 565L288.5 594L278 626.5L271 659V665.5L278 659L288.5 626.5L294.5 613.5L317.5 698L323.5 701V683L306 610L336 645.5L351 659V651L323.5 613.5L301 588.5L294.5 558Z" fill="#FFAAAA"/>
<path d="M113.5 568.5L100 563L81.5 602.5L68.5 630.5L49.5 650.5L29.5 677.5L24 699.5L27 707L31.5 701.5L40 672.5L60 654L46.5 688.5L44.5 713L49.5 720.5L53.5 717.5L60 677.5L70.5 654H74.5L78 674.5L88 695L100 701.5V696.5L95.5 688.5L86 668V635L113.5 568.5Z" fill="#FFAAAA"/>
<path d="M201.531 209.435C201.531 208.238 199.582 213.362 199.294 213.967C196.379 220.087 193.575 226.554 192.238 233.242C191.13 238.782 189.14 243.745 189.14 249.478C189.14 254.205 188.605 259.125 193.27 261.869C197.796 264.531 202.102 271.518 205.662 275.523C210.539 281.01 214 287.792 218.512 293.594C219.815 295.269 220.649 299.13 223.216 299.273C227.066 299.487 227.769 296.346 230.445 294.626C237.862 289.858 244.722 284.439 251.614 279.079C256.891 274.974 263.392 273.052 269.168 269.843C273.646 267.355 278 267.5 282.5 264" stroke="#3B4446" stroke-width="5" stroke-linecap="round"/>
<path d="M202 209C209 204 214.837 199.125 222.643 197.043C229.234 195.285 235.991 191.88 242.836 191.88C247.282 191.88 252.069 189.196 256.49 191.88C263.98 196.428 271.649 202.1 276.913 209.205C280.724 214.35 284.614 218.753 287.755 224.408C290.03 228.502 289.304 233.062 289.304 237.889C289.304 241.866 287.463 261.47 284.141 263.131" stroke="#3B4446" stroke-width="5" stroke-linecap="round"/>
<path d="M188.107 257.968C182.996 263.718 182.944 275.441 182.944 282.751C182.944 290.296 188.571 291.669 195.335 292.045C207.392 292.714 217.176 304.436 229.412 304.436" stroke="#3B4446" stroke-width="5" stroke-linecap="round"/>
<path d="M233.543 304.436C242.602 304.436 251.543 304.262 260.391 305.526C262.968 305.894 276.345 311.044 276.913 306.501C277.267 303.669 279.881 300.822 280.011 297.437C280.146 293.919 281.043 290.594 281.043 286.882C281.043 280.833 283 270.872 283 265" stroke="#3B4446" stroke-width="5" stroke-linecap="round"/>
<path d="M186.042 185.684C193.755 177.971 204.288 171.384 213.923 166.294C221.986 162.034 231.538 158.836 240.771 158.836C249.455 158.836 257.419 158.09 265.554 161.418C269.77 163.142 274.167 163.732 278.404 165.548C282.72 167.398 286.364 170.403 290.566 172.26C303.566 178.004 313.184 189.944 322.865 199.625C326.766 203.526 333.707 214.14 333.707 219.761C333.707 226.773 333.91 236.22 335.83 242.938C338.78 253.262 347.818 262.156 350.459 272.425C354.103 286.599 354.092 304.633 347.705 318.319C346.482 320.939 342.5 329.5 335.772 336.448" stroke="#3B4446" stroke-width="5" stroke-linecap="round"/>
<path d="M181.911 194.978C170.193 202.64 159.877 215.045 156.038 228.481C155.445 230.557 150.884 233.51 149.384 234.677C146.429 236.975 143.984 239.704 142.155 242.995C138.489 249.595 135.639 256.236 132.575 263.131C130.293 268.265 129.248 285.271 129.248 279.653" stroke="#3B4446" stroke-width="5" stroke-linecap="round"/>
<path d="M127.5 259C126 259.5 125.5 260.033 124.888 260.033C119.5 262 115.195 262.613 110.89 265.196C102.875 270.005 92.7388 273.173 85.8773 279.653C73.6198 291.23 58.5569 301.487 49.2191 315.852C43.5061 324.642 37.7769 333.351 32.1235 342.184C28.8962 347.227 26.591 352.33 23.8625 357.616C21.1849 362.804 16.5756 368.032 14.8557 373.622C11.3209 385.11 6.9426 396.078 5.56206 408.158C4.08425 421.088 3.26733 434.386 3.26733 447.397C3.26733 469.215 10.7617 493.567 24.4935 510.732C38.5944 528.358 57.5875 538.952 76.01 551.233C84.3239 556.776 93.6635 560.314 102.916 564.084C113.71 568.481 126.477 572.229 137.967 574.181C146.882 575.694 155.581 578.242 164.357 580.376C173.348 582.563 182.803 582.088 191.836 583.761C208.919 586.924 228.626 582.801 244.901 577.623C261.544 572.327 277.73 566.102 293.435 558.462C306.724 551.997 318.43 541.081 328.028 530.007C334.678 522.334 338.135 513.531 344.033 505.339C350.169 496.818 355.598 487.855 359.523 478.147C365.138 464.256 373.98 448.884 373.98 433.514C373.98 425.815 374.212 416.786 372.431 409.305C370.353 400.577 371.175 391.667 369.046 382.916C367.307 375.766 365.271 368.892 362.621 362.034C360.148 355.635 358.5 352 354.5 346C352.14 341.832 352.828 341.765 349.5 336.5C347.604 333.5 346.5 332.5 345 330" stroke="#3B4446" stroke-width="5" stroke-linecap="round"/>
<path d="M99.3014 566.723C99.137 568.202 97.9993 568.867 97.2361 570.05C93.2853 576.174 91.4965 583.541 88.5162 590.129C83.1072 602.086 77.5555 614.207 73.0268 626.558C69.3141 636.683 61.7737 639.36 54.3822 646.751C38.9435 662.19 23.9198 681.838 23.9198 704.062" stroke="#3B4446" stroke-width="5" stroke-linecap="round"/>
<path d="M23.9198 704.062C26.3515 704.366 23.6233 710.102 28.0503 708.995C31.7772 708.064 30.8657 700.742 31.6645 697.866C34.4794 687.733 38.3491 678.863 44.056 669.985C45.6678 667.478 59.029 652.453 59.029 654.725C59.029 659.242 56.3278 664.029 54.3822 667.92C51.0423 674.6 48.6126 681.599 46.6375 688.802C44.2962 697.341 41.6802 711.547 47.6702 719.035C52.5311 725.111 53.8068 705.614 54.3822 704.578C55.3338 702.865 55.9312 698.23 55.9312 696.317C55.9312 692.307 57.7664 688.811 57.9964 684.901C58.4018 678.01 63.6657 670.397 66.0279 664.019C66.7171 662.158 71.9659 647.286 75.0347 654.037C77.4089 659.26 76.2465 666.246 77.3868 671.821C78.4326 676.934 80.2988 682.695 83.2957 687.023C87.775 693.494 92.0532 700.208 99.3014 703.832C102.464 705.414 101.367 698.98 101.367 697.35C101.367 694.833 99.147 692.09 97.4656 690.408C93.1017 686.044 91.943 683.066 89.4915 677.673C87.1601 672.543 84.8447 662.59 84.8447 657.02C84.8447 646.316 84.3054 636.987 88.9751 627.648" stroke="#3B4446" stroke-width="5" stroke-linecap="round"/>
<path d="M112.726 568.788C112.272 571.057 110.063 573.142 109.169 575.328C107.225 580.08 105.975 585.19 103.432 589.67C100.595 594.668 99.3365 600.48 96.6626 605.446C94.6506 609.183 92.0731 621.565 92.0731 617.321" stroke="#3B4446" stroke-width="5" stroke-linecap="round"/>
<path d="M282.076 564.657C282.581 569.705 285.467 575.766 287.239 580.491C288.068 582.702 287.604 585.357 288.501 587.375C289.88 590.478 289.304 594.306 289.304 597.701C289.304 602.52 285.586 606.628 284.371 611.126C281.686 621.06 276.199 629.959 273.872 640.039C272.268 646.989 269.684 653.529 269.684 660.692C269.684 663.042 269.73 665.201 272.782 664.765C276.385 664.25 279.532 655.543 281.043 652.431C285.953 642.323 285.359 629.793 290.853 619.903C291.476 618.782 293.393 612.273 294.984 612.273C297.399 612.273 297.657 622.1 298.082 623.46C300.722 631.908 300.885 641.039 304.277 649.333C308.393 659.392 309.789 670.971 313.055 681.344C314.386 685.571 314.935 695.509 318.447 698.669C323.585 703.294 324.414 685.563 324.414 684.499C324.414 671.236 318.207 657.601 315.349 644.743C313.144 634.819 310.796 624.63 306.629 615.256C305.731 613.234 303.726 607.781 307.892 609.863C313.867 612.851 318.23 620.448 322.291 625.525C327.72 632.311 332.546 639.431 337.838 646.235C341.028 650.337 343.348 655.187 347.361 658.397C352.445 662.464 352.813 652.117 351.262 649.562C348.408 644.862 344.916 640.602 341.452 636.368C336.037 629.749 330.947 622.823 324.93 616.805C319.43 611.305 315.985 603.724 310.186 598.505C305.65 594.422 300.663 588.063 300.663 581.638C300.663 574.418 295.5 568.187 295.5 560.527" stroke="#3B4446" stroke-width="5" stroke-linecap="round"/>
<path d="M322.348 231.12C310.353 220.457 302.215 237.159 298.827 246.15C296.945 251.146 292.698 261.383 296.074 266.688C299.892 272.689 305.373 273.373 310.416 268.811C319.465 260.623 317.185 248.274 317.185 237.832C317.185 231.991 310.665 224.864 307.892 233.185" stroke="#3B4446" stroke-width="5" stroke-linecap="round"/>
<path d="M308.924 230.087C308.137 243.277 304.27 256.105 303.761 269.327C303.506 275.952 306.507 256.351 307.662 249.822C308.479 245.205 310.601 233.091 306.974 245.232C304.379 253.918 301.696 262.066 301.696 271.163C301.696 278.432 304.279 256.856 305.597 249.707C305.785 248.685 307.885 235.042 306.171 239.725C303.753 246.326 300.948 253.723 300.663 260.836C300.407 267.237 303.088 248.253 304.564 242.02C305.185 239.4 308.472 230.732 305.941 238.922C304.336 244.115 302.259 249.142 300.893 254.411C300.327 256.594 300.368 259.585 299.401 261.64C295.55 269.823 309.686 227.032 306.171 235.365C302.828 243.288 299.908 251.106 298.368 259.574C297.028 266.945 301.824 251.862 302.27 250.395C302.966 248.103 304.9 241.496 303.302 243.282C301.152 245.684 300.615 250.961 299.86 253.952C299.008 257.329 297.689 267.664 298.713 264.336C299.181 262.815 303.337 251.417 301.638 250.568C301.306 250.401 300.663 260.242 300.663 261.353C300.663 262.921 299.631 255.195 299.631 256.763C299.631 257.308 299.776 263.168 300.09 262.959C300.657 262.58 298.598 256.695 298.598 255.501C298.598 253.493 298.598 259.517 298.598 261.525C298.598 266.086 300.025 264.937 299.057 261.066C298.799 260.033 296.878 254.721 297.106 255.559C297.92 258.543 298.483 267.831 298.483 264.737C298.483 261.613 297.448 252.555 296.59 255.559C295.812 258.283 298.105 261.381 298.541 263.992C298.804 265.57 298.443 262.353 298.655 262.672C302.42 268.319 302.132 259.598 303.245 255.272C304.815 249.166 305.587 242.396 308.924 236.914C313.052 230.133 310.075 247.133 309.727 248.789C309.499 249.875 306.409 261.837 307.088 256.132C308.076 247.836 310.445 239.994 313.858 232.382C315.364 229.022 315.065 232.308 314.89 234.103C314.329 239.885 312.835 245.521 311.219 251.084C310.07 255.039 308.824 258.933 307.088 262.672C306.619 263.684 306.01 266.87 305.826 265.77C304.54 258.051 306.836 248.652 309.957 241.676C311.66 237.869 316.303 228.08 316.956 237.774C317.439 244.955 316.196 255.031 311.793 261.066C307.558 266.869 307.3 254.348 307.318 252.231C307.339 249.709 309.45 235.902 314.89 238.233C320.68 240.714 315.151 254.616 313.514 258.083C311.762 261.792 309.383 262.775 309.383 257.509C309.383 254.034 313.806 244.515 313.628 247.986C313.321 253.98 309.162 262.029 305.826 267.032C304.506 269.012 308.012 255.714 308.695 253.952C309.101 252.904 315.532 241.77 314.89 247.183C314.355 251.703 312.925 255.934 310.989 260.033C310.141 261.83 307.555 269.65 305.425 270.36C301.287 271.739 313.592 240.448 315.636 251.485C316.274 254.929 316.838 260.666 313.055 262.557C311.641 263.264 309.682 263.626 310.014 261.467C310.195 260.292 312.579 254.278 314.489 255.042C315.68 255.519 309.769 262.923 308.924 263.533C306.802 265.065 304.767 265.196 302.27 265.196C300.822 265.196 299.053 261.395 298.655 262.787C296.838 269.149 302.693 270.68 307.375 268.237C309.681 267.034 312.685 265.451 314.546 263.59C315.653 262.484 318.048 258.41 317.07 259.632C311.088 267.11 303.558 268.299 298.598 260.033" stroke="#3B4446" stroke-width="5" stroke-linecap="round"/>
<path d="M182.944 196.01C189.511 202.578 186.042 211.672 186.042 219.703C186.042 223.267 185.118 241.046 180.305 242.421C171.989 244.797 170.095 230.313 171.815 225.153C174.033 218.5 179.193 210.214 185.009 206.337" stroke="#3B4446" stroke-width="5" stroke-linecap="round"/>
<path d="M185.009 205.304C178.24 205.304 175.413 215.75 174.167 220.736C172.823 226.11 173.899 231.185 174.683 236.283C175.36 240.683 175.993 227.476 176.748 223.088C178.628 212.161 177.801 221.508 177.265 226.875C176.914 230.378 175.956 240.832 176.863 237.43C178.957 229.577 181.184 221.79 182.715 213.795C184.109 206.513 181.103 220.407 180.879 221.367C179.805 225.964 179.161 230.463 178.584 235.136C178.549 235.42 177.332 241.381 178.469 238.176C181.92 228.45 183.513 217.891 185.411 207.771C188.587 190.831 184.377 213.113 185.985 204.272C186.05 203.914 185.974 205.001 185.927 205.361C185.118 211.632 183.849 217.902 182.715 224.121C181.903 228.57 178.544 241.686 180.076 237.43C183.228 228.673 183.681 217.937 185.468 208.746C186.373 204.095 185.631 209.099 185.468 210.467C184.826 215.881 184.244 221.307 183.46 226.702C183.27 228.013 183.095 233.551 181.969 234.677C181.36 235.285 181.911 232.956 181.911 232.095C181.911 228.482 181.879 224.859 182.141 221.252C182.241 219.871 184.618 204.737 183.747 211.615C183.124 216.539 181.972 221.351 180.879 226.186C180.024 229.966 180.049 235.533 178.297 239.037C175.081 245.47 178.537 224.651 178.871 217.466C178.952 215.723 179.132 213.887 179.789 212.246C180.931 209.39 178.495 218.261 177.781 221.252C176.609 226.162 174.827 241.205 175.945 236.283C177.568 229.142 178.881 221.915 179.789 214.655C180.401 209.76 176.91 222.517 176.806 222.973C175.825 227.263 174.985 231.651 174.74 236.053C174.654 237.609 174.413 241.491 174.912 237.43C175.32 234.117 175.716 224.11 175.716 227.448C175.716 230.661 175.716 240.299 175.716 237.086C175.716 227.332 172.978 236.724 175.945 239.151C179.005 241.655 182.795 232.534 179.387 237.889C177.954 240.141 178.954 240.562 176.691 238.864C175.405 237.9 172.712 235.391 174.683 238.348" stroke="#3B4446" stroke-width="5" stroke-linecap="round"/>
<path d="M182.944 204.271C186.118 204.271 177.488 207.835 175.716 210.467C172.69 214.961 171.585 220.144 171.585 225.498C171.585 233.03 171.286 234.9 176.519 239.61C177.113 240.145 178.051 241.012 178.756 239.954C179.457 238.904 176.789 244.429 176.748 243.167C176.626 239.368 180.01 227.545 178.01 237.545C177.348 240.857 179.846 232.099 179.846 239.954C179.846 241.867 179.846 236.13 179.846 234.218" stroke="#3B4446" stroke-width="5" stroke-linecap="round"/>
<path d="M448.693 151.5L451.693 138.5L444.693 130.5L435.693 110L428.193 83.5V56.5L438.693 41L468.193 12L514.693 2L542.193 12L572.193 36L591.693 74L595.693 118L581.693 135L549.193 154.5L500.193 158L471.693 154.5L463.693 161L438.693 173L430.193 170.5V165.5L448.693 151.5Z" fill="white"/>
<path d="M484.693 42.5L477.193 61.5L497.693 63L500.693 58H510.193L519.193 61.5L515.693 68.5L500.693 77.5L496.193 100.5L517.193 103.5L519.193 100.5L523.693 88.5L532.193 79L545.693 72.5L543.193 56L527.693 41.5L497.693 38L484.693 42.5Z" fill="#FFAAAA"/>
<path d="M510.193 112H499.693L499.193 112.5L496.693 116V126.5L502.693 131L512.193 130L516.193 126.5L517.693 118L510.193 112Z" fill="#FFAAAA"/>
<path d="M451.12 142.111C451.12 151.464 442.043 158.087 435.073 162.913C433.613 163.923 427.478 165.629 427.478 167.668C427.478 170.388 431.463 171.828 433.554 171.828C440.818 171.828 444.949 172.007 451.12 168.922C455.368 166.798 459.051 163.767 463.007 161.13" stroke="#3B4446" stroke-width="5" stroke-linecap="round"/>
<path d="M446.365 132.602C445.576 125.504 438.198 118.83 435.667 112.13C428.133 92.1872 421.552 63.8152 433.818 44.3753C452.218 15.2134 482.683 3.03577 516.497 3.03577C531.023 3.03577 542.864 14.2461 554.469 22.1206C569.66 32.4292 579.452 46.2867 586.563 62.9979C595.68 84.4238 602.79 119.331 582.27 136.168C562.02 152.783 529.557 158.753 503.95 158.753C495.497 158.753 487.976 153.998 480.242 153.998C476.31 153.998 469.644 153.797 467.761 157.564" stroke="#3B4446" stroke-width="5" stroke-linecap="round"/>
<path d="M481.878 47.8121C481.878 41.3478 490.084 38.7738 495.104 38.1901C505.625 36.9666 517.143 38.2019 526.781 42.8229C534.891 46.7114 540.825 50.8368 544.244 59.5724C546.455 65.2253 545.85 71.5565 540.284 74.8964C530.86 80.5508 518.228 86.911 518.228 99.4861C518.228 103.76 516.165 102.693 512.21 102.693C507.8 102.693 504.51 102.635 500.41 101.268" stroke="#3B4446" stroke-width="5" stroke-linecap="round"/>
<path d="M480.693 51.5C480.193 53.5 478.724 56.9316 479.067 58.82C479.728 62.4527 482.963 61.4944 485.693 62C490.182 62.8313 493.662 63.104 497.875 64.7894C498.309 64.9629 498.693 64 498.693 63C498.693 62 498.85 61.6953 498.984 60.6415C499.193 59 499.27 57.7905 501.281 57.7905C506.006 57.7905 511.01 57.1163 515.377 59.0576C517.636 60.0616 521.679 66.3681 517.476 67.7689C513.393 69.1301 509.281 71.3143 506.033 73.8669C503.893 75.548 501.853 77.4452 500.568 79.8856C499.233 82.4225 499.462 83.8339 498.826 86.6171C497.914 90.6082 496.133 94.4776 496.133 98.417" stroke="#3B4446" stroke-width="5" stroke-linecap="round"/>
<path d="M505.309 110.759C500.146 110.759 494.814 115.147 495.693 123C497.193 130 502.72 131.819 508.693 131C510.794 131 513.693 129.833 514.693 128.5C516.193 126.5 517.193 125 517.193 119.5C517.193 114.5 513.47 111 509.193 111" stroke="#3B4446" stroke-width="5" stroke-linecap="round"/>
</svg>
