<svg width="24" height="24" viewBox="0 0 36 36" fill="none" xmlns="http://www.w3.org/2000/svg">
<path d="M7.51705 16.4062H26.608C26.8611 16.4062 27.1039 16.5215 27.2829 16.7266C27.4619 16.9317 27.5625 17.2099 27.5625 17.5C27.5625 17.7901 27.4619 18.0683 27.2829 18.2734C27.1039 18.4785 26.8611 18.5938 26.608 18.5938H7.51705C7.26388 18.5938 7.02109 18.4785 6.84208 18.2734C6.66307 18.0683 6.5625 17.7901 6.5625 17.5C6.5625 17.2099 6.66307 16.9317 6.84208 16.7266C7.02109 16.5215 7.26388 16.4062 7.51705 16.4062Z" fill="current"/>
<path d="M8.10906 17.5L17.1806 26.5694C17.386 26.7748 17.5014 27.0533 17.5014 27.3438C17.5014 27.6342 17.386 27.9128 17.1806 28.1181C16.9752 28.3235 16.6967 28.4389 16.4063 28.4389C16.1158 28.4389 15.8373 28.3235 15.6319 28.1181L5.78813 18.2744C5.68627 18.1728 5.60546 18.0521 5.55032 17.9192C5.49518 17.7863 5.4668 17.6439 5.4668 17.5C5.4668 17.3561 5.49518 17.2137 5.55032 17.0808C5.60546 16.9479 5.68627 16.8272 5.78813 16.7256L15.6319 6.88188C15.8373 6.67651 16.1158 6.56113 16.4063 6.56113C16.6967 6.56113 16.9752 6.67651 17.1806 6.88188C17.386 7.08726 17.5014 7.36581 17.5014 7.65626C17.5014 7.94671 17.386 8.22526 17.1806 8.43063L8.10906 17.5Z" fill="current"/>
</svg>
