<svg width="23" height="23" viewBox="0 0 24 24" fill="current" stroke="none" xmlns="http://www.w3.org/2000/svg">
<path d="M19.593 12.1461C19.5817 12.0877 19.5695 12.0293 19.5556 11.9711L18.4694 7.36523C18.6808 7.44307 18.9091 7.48564 19.1471 7.48564C19.4001 7.48564 19.6053 7.28051 19.6053 7.02747V4.00993C19.6053 3.75688 19.4001 3.55176 19.1471 3.55176C18.5836 3.55176 18.075 3.79033 17.7161 4.17138L17.6532 3.90478C17.6044 3.69791 17.4198 3.55176 17.2073 3.55176H15.3752C15.2399 3.55176 15.1115 3.61155 15.0245 3.71509C14.9375 3.81864 14.9006 3.9554 14.9239 4.08864L15.0558 4.84498H13.3815C13.1285 4.84498 12.9233 5.05011 12.9233 5.30315C12.9233 5.5562 13.1285 5.76132 13.3815 5.76132H15.2156L15.9105 9.74486C16.0221 10.4558 15.9428 11.1858 15.681 11.8562C15.0688 13.4243 13.5855 14.4406 11.9021 14.4454L11.5783 14.4463C10.1878 14.2611 10.1879 13.5418 10.1879 13.2699C10.1879 12.3944 10.9 11.666 11.7753 11.6462C12.0242 11.6405 12.2231 11.4371 12.2231 11.1881V9.94857V7.79687C12.2231 7.54382 12.0179 7.3387 11.7649 7.3387H4.74676C4.49371 7.3387 4.28859 7.54382 4.28859 7.79687V9.50987C1.88784 9.72603 0 11.7492 0 14.2051V15.5571C0 15.8102 0.205122 16.0153 0.458168 16.0153H0.802711C0.800603 16.0636 0.799 16.1122 0.799 16.1611C0.799 17.9736 2.27361 19.4482 4.08617 19.4482C5.58076 19.4482 6.84467 18.4453 7.2424 17.0773H15.9639C16.3617 18.4452 17.6256 19.4482 19.1201 19.4482C20.7832 19.4482 22.1609 18.2064 22.3769 16.6015C22.8196 16.7651 23 16.324 23 15.9725C23 13.9988 21.5081 12.368 19.593 12.1461ZM19.5624 13.8323C20.3479 13.9811 20.9977 14.5182 21.303 15.2362C20.6247 15.0645 19.8979 14.9755 19.147 14.9755C19.1345 14.9755 19.1222 14.9758 19.1096 14.9758C19.319 14.6174 19.4706 14.2314 19.5624 13.8323ZM18.6889 4.57334V6.46406C18.3385 6.29357 18.0965 5.93387 18.0965 5.51872C18.0965 5.10357 18.3385 4.74382 18.6889 4.57334ZM5.20493 8.25504H11.3067V9.4904H5.20493V8.25504ZM4.08617 18.5319C2.77888 18.5319 1.71534 17.4684 1.71534 16.1611C1.71534 16.1121 1.71731 16.0636 1.72024 16.0154H6.45202C6.45495 16.0636 6.45692 16.1121 6.45692 16.1611C6.45697 17.4684 5.39342 18.5319 4.08617 18.5319ZM16.0704 16.1609H7.45133V16.0473C7.45133 15.8712 7.40217 15.7066 7.31818 15.5652C7.15279 15.2866 6.8498 15.099 6.50306 15.099H0.916336V14.2051C0.916336 12.1107 2.62031 10.4067 4.71478 10.4067H4.74676H11.3067V10.7796C10.8115 10.8792 10.3573 11.1245 9.99686 11.4926C9.52912 11.9701 9.27149 12.6013 9.27149 13.2699C9.27149 13.9455 9.55996 15.1152 11.4919 15.3591C11.5114 15.3615 11.5312 15.3624 11.5506 15.3627L11.9047 15.3617C12.9098 15.3588 13.8793 15.0571 14.7084 14.489C15.5375 13.9209 16.169 13.1258 16.5346 12.1896C16.8557 11.367 16.9527 10.4711 16.815 9.59871C16.8146 9.59628 16.8142 9.59385 16.8138 9.59142L15.9202 4.46819H16.8446L18.6567 12.1519C19.0108 13.7013 17.9251 16.1609 16.0704 16.1609ZM19.1201 18.5319C18.095 18.5319 17.2199 17.8778 16.8899 16.965C17.5053 16.793 18.0574 16.4301 18.4603 15.9211C18.6871 15.902 18.9165 15.8919 19.1471 15.8919C19.9657 15.8919 20.7706 16.015 21.4888 16.2443C21.4448 17.5131 20.3995 18.5319 19.1201 18.5319Z" stroke="none" fill="current"/>
<path d="M4.54418 11.0419C4.28569 11.0419 4.02888 11.075 3.78092 11.1402C3.53621 11.2047 3.39006 11.4552 3.45448 11.6999C3.50859 11.9056 3.69415 12.0416 3.89725 12.0416C3.93587 12.0416 3.97514 12.0367 4.01422 12.0264C4.18608 11.9811 4.36445 11.9582 4.54418 11.9582C4.79723 11.9582 5.00235 11.7531 5.00235 11.5C5.00235 11.247 4.79723 11.0419 4.54418 11.0419Z" stroke="none" fill="current"/>
<path d="M2.94283 12.0178C2.75274 11.8509 2.46327 11.8697 2.29622 12.0598C1.81716 12.6053 1.55334 13.3059 1.55334 14.0326C1.55334 14.2856 1.75847 14.4907 2.01151 14.4907C2.26456 14.4907 2.46968 14.2856 2.46968 14.0326C2.46968 13.5285 2.65263 13.0427 2.98475 12.6644C3.15176 12.4743 3.13297 12.1849 2.94283 12.0178Z" stroke="none" fill="current"/>
</svg>
