<svg width="25" height="25" viewBox="0 0 25 25" fill="none" xmlns="http://www.w3.org/2000/svg">
<path d="M11.4495 5.92723C12.8087 5.92723 13.913 4.82423 13.913 3.46364C13.913 2.10265 12.8087 1 11.4495 1C10.0887 1 8.98535 2.10265 8.98535 3.46364C8.98535 4.82423 10.0887 5.92723 11.4495 5.92723Z" fill="#3B4446"/>
<path d="M15.2565 17.8875C14.6019 20.1606 12.5063 21.83 10.0253 21.83C7.02074 21.83 4.57738 19.3865 4.57738 16.3829C4.57738 14.1595 5.91871 12.2458 7.83293 11.4002V9.09094C4.69812 10.0351 2.40765 12.9452 2.40765 16.3829C2.40765 20.5827 5.82485 24 10.0252 24C13.0862 24 15.7246 22.1807 16.9344 19.5704L16.0743 17.8806C15.8329 17.8825 15.5532 17.8851 15.2565 17.8875Z" fill="#3B4446"/>
<path d="M22.4341 20.8119L19.1342 14.3242C18.8879 13.8387 18.39 13.5332 17.8453 13.5332H13.6188V12.5694H17.2563C17.6196 12.5694 17.9249 12.3796 18.1221 12.1061C18.2502 11.9279 18.3414 11.721 18.3414 11.4843C18.3414 10.8852 17.8562 10.3993 17.2563 10.3993H15.0649H13.6188V8.99994C13.6188 8.10091 12.9522 6.82991 11.4496 6.82991C10.2511 6.82991 9.2796 7.80161 9.2796 8.99994V14.2128C9.2796 15.4353 10.2707 16.4263 11.4932 16.4263H15.4703H16.9584L19.8561 22.1236C20.1107 22.6254 20.6189 22.915 21.1463 22.915C21.3673 22.915 21.5915 22.8645 21.8009 22.7572C22.5141 22.3955 22.7973 21.524 22.4341 20.8119Z" fill="#3B4446"/>
</svg>
