<svg width="25" height="25" viewBox="0 0 25 25" fill="none" xmlns="http://www.w3.org/2000/svg">
<g clip-path="url(#clip0_157_9)">
<path d="M12.9036 1C9.64318 1 7 3.64318 7 6.90356C7 10.3888 10.0736 13.874 11.7851 15.5448C12.4071 16.1517 13.4 16.1517 14.0215 15.5448C15.7335 13.874 18.8071 10.3888 18.8071 6.90356C18.8071 3.64318 16.1639 1 12.9036 1ZM13.6506 15.154C13.2347 15.5609 12.573 15.5609 12.157 15.154C10.5008 13.5333 7.53669 10.1752 7.53669 6.90356C7.53669 3.94427 9.94427 1.53669 12.9036 1.53669C15.8628 1.53669 18.2704 3.94427 18.2704 6.90356C18.2704 10.1752 15.3063 13.5333 13.6506 15.154ZM12.9036 3.68344C11.125 3.68344 9.68344 5.12498 9.68344 6.90356C9.68344 8.68214 11.125 10.1237 12.9036 10.1237C14.6821 10.1237 16.1237 8.68214 16.1237 6.90356C16.1237 5.12498 14.6821 3.68344 12.9036 3.68344ZM12.9036 9.58699C11.4239 9.58699 10.2201 8.3832 10.2201 6.90356C10.2201 5.42391 11.4239 4.22012 12.9036 4.22012C14.3832 4.22012 15.587 5.42391 15.587 6.90356C15.587 8.3832 14.3832 9.58699 12.9036 9.58699Z" fill="#3B4446"/>
<path d="M8.36133 23.1895L8.01953 22.291H5.10938L4.76758 23.209C4.63411 23.5671 4.52018 23.8096 4.42578 23.9365C4.33138 24.0602 4.17676 24.1221 3.96191 24.1221C3.77962 24.1221 3.61849 24.0553 3.47852 23.9219C3.33854 23.7884 3.26855 23.637 3.26855 23.4678C3.26855 23.3701 3.28483 23.2692 3.31738 23.165C3.34993 23.0609 3.40365 22.916 3.47852 22.7305L5.30957 18.082C5.36165 17.9486 5.4235 17.7891 5.49512 17.6035C5.56999 17.4147 5.64811 17.2585 5.72949 17.1348C5.81413 17.0111 5.92318 16.9118 6.05664 16.8369C6.19336 16.7588 6.361 16.7197 6.55957 16.7197C6.76139 16.7197 6.92904 16.7588 7.0625 16.8369C7.19922 16.9118 7.30827 17.0094 7.38965 17.1299C7.47428 17.2503 7.54427 17.3805 7.59961 17.5205C7.6582 17.6572 7.73145 17.8411 7.81934 18.0723L9.68945 22.6914C9.83594 23.043 9.90918 23.2985 9.90918 23.458C9.90918 23.624 9.83919 23.777 9.69922 23.917C9.5625 24.0537 9.39648 24.1221 9.20117 24.1221C9.08724 24.1221 8.98958 24.1009 8.9082 24.0586C8.82682 24.0195 8.75846 23.9658 8.70312 23.8975C8.64779 23.8258 8.58757 23.7184 8.52246 23.5752C8.46061 23.4287 8.4069 23.3001 8.36133 23.1895ZM5.49023 21.2021H7.62891L6.5498 18.248L5.49023 21.2021ZM12.3994 17.5986V22.8086H15.3389C15.5732 22.8086 15.7523 22.8656 15.876 22.9795C16.0029 23.0934 16.0664 23.2367 16.0664 23.4092C16.0664 23.585 16.0046 23.7282 15.8809 23.8389C15.7572 23.9463 15.5765 24 15.3389 24H11.8379C11.5221 24 11.2943 23.93 11.1543 23.79C11.0176 23.6501 10.9492 23.4238 10.9492 23.1113V17.5986C10.9492 17.3057 11.0143 17.0859 11.1445 16.9395C11.278 16.793 11.4521 16.7197 11.667 16.7197C11.8851 16.7197 12.0609 16.793 12.1943 16.9395C12.3311 17.0827 12.3994 17.3024 12.3994 17.5986ZM18.4443 17.5986V22.8086H21.3838C21.6182 22.8086 21.7972 22.8656 21.9209 22.9795C22.0479 23.0934 22.1113 23.2367 22.1113 23.4092C22.1113 23.585 22.0495 23.7282 21.9258 23.8389C21.8021 23.9463 21.6214 24 21.3838 24H17.8828C17.5671 24 17.3392 23.93 17.1992 23.79C17.0625 23.6501 16.9941 23.4238 16.9941 23.1113V17.5986C16.9941 17.3057 17.0592 17.0859 17.1895 16.9395C17.3229 16.793 17.4971 16.7197 17.7119 16.7197C17.93 16.7197 18.1058 16.793 18.2393 16.9395C18.376 17.0827 18.4443 17.3024 18.4443 17.5986Z" fill="#3B4446"/>
</g>
<defs>
<clipPath id="clip0_157_9">
<rect width="25" height="25" fill="white"/>
</clipPath>
</defs>
</svg>
