<svg width="33" height="34" viewBox="0 0 33 34" fill="none" xmlns="http://www.w3.org/2000/svg">
<path d="M12.3249 33.1663V29.201C12.3249 28.62 12.0449 28.15 11.4634 28.15C10.8819 28.15 10.6019 28.6204 10.6019 29.201V33.1663H12.3249Z" fill="#FFD2BF"/>
<path d="M15.7707 33.1663V29.201C15.7707 28.62 15.4907 28.15 14.9093 28.15C14.3278 28.15 14.0478 28.6204 14.0478 29.201V33.1663H15.7707Z" fill="#FFD2BF"/>
<path d="M15.5381 29.8256C11.2773 29.8256 6.11584 28.4856 0.611519 25.9503C0.162697 25.744 -0.0810972 25.2521 0.0244322 24.7705C0.129961 24.2877 0.556816 23.944 1.0513 23.944C8.14588 23.944 10.8871 17.5635 13.5382 11.392C15.9443 5.79206 18.511 0 24.3853 0C27.4005 0 30.8463 1.72293 33 3.44586C32.5692 3.44586 31.1784 3.82059 30.7615 3.93172C28.7663 4.46152 28.5376 8.01119 28.2731 12.1217C27.9854 16.5922 27.6576 21.6598 25.0586 25.5769C23.2142 28.3564 19.9212 29.8256 15.5381 29.8256Z" fill="white"/>
<path d="M30.7615 3.93172C30.795 3.92267 30.8226 3.90286 30.8536 3.89037C22.4884 3.71592 27.4974 35.382 0.0997925 25.4274C0.200584 25.6514 0.375892 25.8413 0.611502 25.9499C6.11583 28.4852 11.2781 29.8252 15.5381 29.8252C19.9212 29.8252 23.2142 28.3555 25.0586 25.576C27.6576 21.6589 27.9854 16.5918 28.2731 12.1208C28.5376 8.01118 28.7663 4.46152 30.7615 3.93172Z" fill="#EBEBEB"/>
<path d="M28.0802 11.6349C27.9648 11.5199 27.8235 11.4316 27.6685 11.3804C26.8092 11.0948 25.9063 10.9492 24.9876 10.9492C20.6514 10.9492 16.6882 14.1138 15.35 18.6451C14.3007 22.1978 14.9119 25.8892 17.0259 28.7725C17.0759 28.8401 17.1358 28.9039 17.2004 28.9577L18.0136 29.6352C21.1636 29.1713 23.5821 27.8033 25.0582 25.5773C27.6568 21.6602 27.9846 16.5931 28.2724 12.1221C28.2784 12.0295 28.284 11.9382 28.2909 11.8447L28.0802 11.6349Z" fill="white"/>
<path d="M28.0802 11.6349C27.9647 11.5199 27.8235 11.4316 27.6684 11.3803C26.9624 11.146 26.2263 11.0112 25.4773 10.9686C23.5652 16.3501 21.446 23.2866 15.5795 26.0967C15.9353 27.04 16.4155 27.9407 17.025 28.7724C17.075 28.8401 17.1348 28.9038 17.1995 28.9577L18.0127 29.6352C20.3701 29.2876 22.317 28.4343 23.7664 27.0935C23.7716 27.0891 23.7759 27.0844 23.781 27.0805C24.0046 26.8734 24.2131 26.6515 24.4125 26.4215C24.447 26.3806 24.481 26.3392 24.515 26.2979C24.7063 26.0683 24.8893 25.8301 25.0569 25.5777C27.6559 21.6606 27.9837 16.5935 28.2714 12.1225C28.2775 12.029 28.2831 11.9377 28.2895 11.8447L28.0802 11.6349Z" fill="#F7F7F7"/>
<path d="M16.4987 20.0731C17.8374 15.5426 21.8006 12.378 26.1364 12.378C26.8518 12.378 27.5517 12.4922 28.2349 12.6666C28.2469 12.4861 28.2612 12.3009 28.2724 12.1213C28.2784 12.0287 28.284 11.9374 28.2909 11.8439L28.0802 11.6346C27.9648 11.5196 27.8235 11.4313 27.6685 11.38C26.8092 11.0944 25.9063 10.9489 24.9876 10.9489C20.6514 10.9489 16.6882 14.1134 15.35 18.6447C14.3007 22.1974 14.9119 25.8884 17.0259 28.7721C17.0759 28.8397 17.1358 28.9039 17.2004 28.9569L17.5712 29.2675C15.962 26.5431 15.5606 23.2553 16.4987 20.0731Z" fill="white"/>
<path d="M17.0259 28.772C17.0758 28.8396 17.1357 28.9038 17.2003 28.9568L17.5712 29.2673C16.9255 28.175 16.478 26.9909 16.2299 25.7599C16.0188 25.8779 15.8017 25.9899 15.5795 26.0963C15.9361 27.0392 16.4164 27.9403 17.0259 28.772Z" fill="#F6F6F6"/>
<path d="M28.0802 11.6349C27.9647 11.5199 27.8234 11.4316 27.6684 11.3803C26.9624 11.146 26.2263 11.0112 25.4772 10.9686C25.3041 11.4566 25.1279 11.9571 24.9483 12.4667C25.3403 12.4141 25.7357 12.3784 26.1363 12.3784C26.8517 12.3784 27.5516 12.4925 28.2352 12.6669C28.2469 12.4865 28.2611 12.3013 28.2723 12.1216C28.2783 12.0282 28.2839 11.9369 28.2904 11.8438L28.0802 11.6349Z" fill="#F6F6F6"/>
<path d="M26.2853 5.018C26.2853 6.17839 25.3441 7.12083 24.1846 7.12083C23.022 7.12083 22.0792 6.17839 22.0792 5.018C22.0792 3.85674 23.0216 2.91516 24.1846 2.91516C25.3454 2.91516 26.2853 3.85674 26.2853 5.018Z" fill="#FBACA1"/>
<path d="M24.4723 6.01078C25.1836 6.01078 25.7603 5.43412 25.7603 4.72277C25.7603 4.01142 25.1836 3.43475 24.4723 3.43475C23.7609 3.43475 23.1843 4.01142 23.1843 4.72277C23.1843 5.43412 23.7609 6.01078 24.4723 6.01078Z" fill="#7B1616"/>
<path d="M28.6927 3.4459C28.6927 4.22897 28.8719 4.96854 29.1837 5.63359C29.53 4.73723 30.0245 4.12732 30.7615 3.93177C31.1784 3.82064 32.5693 3.4459 33 3.4459C31.9736 2.62492 30.6525 1.80567 29.2255 1.1712C28.8878 1.85822 28.6927 2.6288 28.6927 3.4459Z" fill="#FF675E"/>
<path d="M28.8287 4.61058C28.9114 4.9668 29.0316 5.30923 29.1828 5.63357C29.1845 5.62926 29.1862 5.62582 29.1884 5.62194C29.2332 5.50737 29.2801 5.39753 29.3292 5.29286C29.3555 5.23859 29.3831 5.18777 29.4102 5.13565C29.4455 5.06888 29.4817 5.00427 29.5192 4.94225C29.5476 4.8953 29.5769 4.84878 29.6066 4.80484C29.6557 4.73205 29.7083 4.66399 29.7617 4.59895C29.7828 4.57397 29.8022 4.54554 29.8237 4.52185C29.8987 4.43786 29.9788 4.36378 30.0628 4.29486C30.0903 4.27203 30.1209 4.25178 30.1494 4.23068C30.2144 4.18287 30.2829 4.13936 30.3527 4.1006C30.3828 4.0838 30.4134 4.067 30.444 4.05193C30.5448 4.00368 30.6499 3.96147 30.7606 3.93175C30.7942 3.9227 30.8217 3.90289 30.8527 3.8904C30.0748 3.87446 29.4128 4.13462 28.8287 4.61058Z" fill="#D97A40"/>
</svg>
