<svg width="22" height="22" viewBox="0 0 22 22" stroke="none" fill="none" xmlns="http://www.w3.org/2000/svg">
<g clip-path="url(#clip0_107_1027)">
<path fill-rule="evenodd" clip-rule="evenodd" d="M7.5218 1.09998C7.44001 1.09916 7.35906 1.1166 7.28486 1.15102L0.31834 4.38744C0.223232 4.43161 0.142734 4.50205 0.0863316 4.59045C0.0299297 4.67885 -2.43349e-05 4.78154 1.48345e-08 4.8864V20.35C-2.14471e-05 20.4424 0.0232451 20.5333 0.0676508 20.6144C0.112057 20.6954 0.17617 20.764 0.254069 20.8137C0.331968 20.8634 0.421141 20.8927 0.513353 20.8989C0.605564 20.905 0.697841 20.8879 0.78166 20.8489L7.51652 17.7203L14.2514 20.8487C14.324 20.8825 14.4032 20.9 14.4833 20.9C14.5634 20.9 14.6425 20.8825 14.7151 20.8487L18.1119 19.2711L19.5556 21.7714C19.6324 21.9044 19.7857 21.986 19.9817 21.9982C20.1776 22.0105 20.4003 21.9524 20.6006 21.8367C20.8009 21.7211 20.9625 21.5573 21.0498 21.3815C21.1371 21.2057 21.1431 21.0321 21.0663 20.8991L19.7001 18.5328L21.6817 17.6125C21.7768 17.5684 21.8573 17.4979 21.9137 17.4095C21.9701 17.3211 22 17.2184 22 17.1136V1.64998C22 1.55756 21.9768 1.46663 21.9323 1.38558C21.8879 1.30453 21.8238 1.23598 21.7459 1.18625C21.668 1.13653 21.5789 1.10723 21.4866 1.10108C21.3944 1.09492 21.3022 1.1121 21.2183 1.15102L14.4835 4.27964L7.74862 1.15124C7.67746 1.11815 7.60005 1.10068 7.52158 1.09998H7.5218ZM7.84212 2.40744L14.1508 5.3385L14.1495 5.53474C13.2551 5.56216 12.3814 5.81108 11.6068 6.2592C9.00746 7.76004 8.11228 11.1014 9.6129 13.7005C10.5754 15.3676 12.2934 16.3282 14.0877 16.4071L14.0697 19.5516L7.76094 16.621L7.84234 2.40766L7.84212 2.40744ZM7.18212 2.41184L7.10072 16.7008L1.1 19.4878V5.23752L7.18212 2.41184ZM20.9 2.51194V16.7629L19.1481 17.5769L18.3795 16.2457C18.3375 16.1729 18.2723 16.1148 18.1883 16.0753C18.1044 16.0358 18.0036 16.0159 17.893 16.0169L17.5226 15.376C19.7498 13.7614 20.4532 10.686 19.0485 8.25306C18.2983 6.9533 17.0874 6.0799 15.7395 5.71866C15.4347 5.63753 15.1236 5.58277 14.8095 5.55498L14.8108 5.34048L20.9 2.51194ZM14.2186 6.73792C14.6265 6.72702 15.0338 6.77518 15.4279 6.88092C15.9658 7.02481 16.47 7.27363 16.9114 7.61305C17.3528 7.95248 17.7227 8.37582 18 8.85872C18.2794 9.34024 18.461 9.8722 18.5342 10.4241C18.6075 10.9759 18.5711 11.5369 18.427 12.0746C18.2829 12.6124 18.0341 13.1164 17.6947 13.5577C17.3553 13.999 16.9321 14.3689 16.4494 14.6463C15.9678 14.9257 15.4358 15.1073 14.8839 15.1806C14.3319 15.2539 13.7709 15.2175 13.2331 15.0734C12.6953 14.9293 12.1912 14.6804 11.7499 14.341C11.3085 14.0015 10.9385 13.5783 10.6612 13.0955C10.3818 12.6139 10.2003 12.0819 10.1271 11.53C10.0538 10.9781 10.0903 10.4172 10.2344 9.87941C10.3785 9.34164 10.6274 8.83763 10.9668 8.39631C11.3062 7.95499 11.7294 7.58505 12.2122 7.30772C12.823 6.95337 13.5127 6.75749 14.2186 6.73792V6.73792ZM16.544 15.941L16.9143 16.5825C16.8581 16.6777 16.8249 16.7748 16.8171 16.8673C16.8092 16.9598 16.8268 17.0453 16.8687 17.118L17.5595 18.3145L14.7292 19.6295L14.7477 16.3955C15.3681 16.3483 15.9758 16.1946 16.544 15.9412V15.941Z" stroke="none" fill="current"/>
</g>
<defs>
<clipPath id="clip0_107_1027">
<rect width="22" height="22" fill="current"/>
</clipPath>
</defs>
</svg>
