<svg width="25" height="25" viewBox="0 0 25 25" fill="none" stroke='none' xmlns="http://www.w3.org/2000/svg">
<path d="M13.1677 24C12.5084 23.9997 11.8502 23.946 11.1996 23.8393C8.01718 23.3171 5.17219 21.5531 3.28942 18.9348C1.40666 16.3165 0.640085 13.058 1.15805 9.87495C1.4479 8.06287 2.14645 6.34055 3.20076 4.83853C4.25508 3.33651 5.63748 2.09421 7.2432 1.20579C7.51411 1.05442 7.82279 0.984048 8.13253 1.00304C8.44227 1.02202 8.74004 1.12957 8.99043 1.3129C9.24636 1.48801 9.44588 1.73372 9.56473 2.02015C9.68358 2.30658 9.71663 2.62137 9.65986 2.92623L8.7896 2.85929L9.613 3.00656C9.14845 5.47074 9.58256 8.0198 10.8366 10.1913C12.0906 12.3628 14.0814 14.0129 16.4479 14.8421C18.2704 15.4746 20.2309 15.5973 22.118 15.1969C22.4166 15.1383 22.7256 15.1643 23.0103 15.2719C23.2949 15.3796 23.5438 15.5645 23.7289 15.806C23.9141 16.0475 24.0281 16.336 24.0581 16.6388C24.088 16.9416 24.0329 17.2468 23.8987 17.5199C22.8662 19.472 21.3221 21.1063 19.4317 22.2479C17.5413 23.3894 15.376 23.9951 13.1677 24V24ZM7.96619 2.71871C6.68576 3.44474 5.57246 4.43211 4.69866 5.61663C3.82486 6.80116 3.21013 8.15632 2.89443 9.59401C2.57873 11.0317 2.56913 12.5197 2.86626 13.9614C3.16338 15.403 3.76058 16.766 4.61903 17.9617C5.6537 19.408 7.03929 20.5674 8.64545 21.3307C10.2516 22.094 12.0255 22.4362 13.8004 22.325C15.5752 22.2139 17.2926 21.6531 18.791 20.6954C20.2894 19.7377 21.5195 18.4145 22.3657 16.8504C20.2125 17.2833 17.9829 17.1354 15.9057 16.422C13.1649 15.461 10.8581 13.5515 9.40208 11.0384C7.94605 8.52537 7.43675 5.57444 7.96619 2.71871V2.71871Z" fill="current" stroke='none'/>
</svg>
