<svg width="25" height="25" viewBox="0 0 25 25" fill="none" xmlns="http://www.w3.org/2000/svg">
<path d="M10.1562 6.17188C10.1562 9.53125 6.25 12.5 6.25 12.5C6.25 12.5 2.34375 9.53125 2.34375 6.17188C2.34375 4.0625 4.0625 2.34375 6.25 2.34375C8.4375 2.34375 10.1562 4.0625 10.1562 6.17188Z" stroke="#3B4446" stroke-width="1.25" stroke-miterlimit="10" stroke-linecap="round" stroke-linejoin="round"/>
<path d="M6.25 6.95312C6.68147 6.95312 7.03125 6.60335 7.03125 6.17188C7.03125 5.7404 6.68147 5.39062 6.25 5.39062C5.81853 5.39062 5.46875 5.7404 5.46875 6.17188C5.46875 6.60335 5.81853 6.95312 6.25 6.95312Z" stroke="#3B4446" stroke-width="0.8" stroke-miterlimit="10" stroke-linecap="round" stroke-linejoin="round"/>
<path d="M22.6562 16.3281C22.6562 19.6875 18.75 22.6562 18.75 22.6562C18.75 22.6562 14.8438 19.6875 14.8438 16.3281C14.8438 14.2187 16.5625 12.5 18.75 12.5C20.9375 12.5 22.6562 14.2187 22.6562 16.3281Z" stroke="#3B4446" stroke-width="1.25" stroke-miterlimit="10" stroke-linecap="round" stroke-linejoin="round"/>
<path d="M18.75 17.1094C19.1815 17.1094 19.5312 16.7596 19.5312 16.3281C19.5312 15.8967 19.1815 15.5469 18.75 15.5469C18.3185 15.5469 17.9688 15.8967 17.9688 16.3281C17.9688 16.7596 18.3185 17.1094 18.75 17.1094Z" stroke="#3B4446" stroke-width="0.8" stroke-miterlimit="10" stroke-linecap="round" stroke-linejoin="round"/>
<path d="M9.6875 4.375C10.5469 4.0625 11.4844 3.90625 12.5 3.90625C16.4062 3.90625 19.7656 6.5625 20.7812 10.1562" stroke="#3B4446" stroke-width="1.25" stroke-miterlimit="10" stroke-linecap="round" stroke-linejoin="round"/>
<path d="M16.3281 20.1562C15.1562 20.7812 13.9063 21.0938 12.5 21.0938C8.59375 21.0938 5.23437 18.4375 4.21875 14.8438" stroke="#3B4446" stroke-width="1.25" stroke-miterlimit="10" stroke-linecap="round" stroke-linejoin="round"/>
</svg>
