<svg width="20" height="20" viewBox="0 0 20 20" stroke="none" fill="current" xmlns="http://www.w3.org/2000/svg">
<path d="M11.3752 4.16667C11.3752 4.39679 11.1886 4.58333 10.9585 4.58333H10.8751C10.645 4.58333 10.4584 4.39679 10.4584 4.16667C10.4584 3.93654 10.645 3.75 10.8751 3.75H10.9585C11.1886 3.75 11.3752 3.93654 11.3752 4.16667ZM11.949 14.9408C12.3953 15.4041 12.3882 16.1512 11.9332 16.6062L10.884 17.6552C10.6478 17.8913 10.3339 18.0213 9.99999 18.0213C9.66603 18.0213 9.35212 17.8913 9.11599 17.6552L8.06678 16.6061C7.61178 16.1512 7.60466 15.4041 8.05099 14.9408C8.27012 14.7133 8.56791 14.5864 8.88949 14.5834C9.21579 14.5805 9.5337 14.71 9.76279 14.939L9.99999 15.1761L10.2372 14.939C10.4663 14.7099 10.7842 14.5805 11.1105 14.5834C11.4321 14.5864 11.7299 14.7133 11.949 14.9408ZM11.3487 15.5189C11.2861 15.4539 11.1987 15.4176 11.1027 15.4167C11.1015 15.4167 11.1002 15.4167 11.099 15.4167C10.9967 15.4167 10.8975 15.4572 10.8265 15.5283L10.2947 16.06C10.2165 16.1382 10.1105 16.1821 9.99999 16.1821C9.88949 16.1821 9.78349 16.1382 9.70533 16.06L9.17345 15.5283C9.10241 15.4572 9.00328 15.4167 8.90095 15.4167C8.89974 15.4167 8.89853 15.4167 8.89733 15.4167C8.80128 15.4175 8.71391 15.4539 8.65124 15.5189C8.51783 15.6574 8.51999 15.8808 8.65612 16.0169L9.70528 17.066C9.78399 17.1447 9.88866 17.188 9.99999 17.188C10.1113 17.188 10.216 17.1447 10.2947 17.066L11.3438 16.0169C11.48 15.8808 11.4822 15.6574 11.3487 15.5189ZM9.12487 3.75H9.04153C8.81137 3.75 8.62483 3.93654 8.62483 4.16667C8.62483 4.39679 8.81141 4.58333 9.04153 4.58333H9.12487C9.35503 4.58333 9.54158 4.39679 9.54158 4.16667C9.54158 3.93654 9.35503 3.75 9.12487 3.75ZM8.2882 11.549C8.76391 11.0875 9.37183 10.8333 9.99999 10.8333C10.6282 10.8333 11.2361 11.0875 11.7118 11.549C11.877 11.7093 12.1407 11.7053 12.301 11.5402C12.4613 11.375 12.4573 11.1112 12.2922 10.951C11.6601 10.3377 10.846 10 9.99999 10C9.15391 10 8.33991 10.3377 7.70783 10.951C7.54266 11.1112 7.53866 11.375 7.69895 11.5402C7.78066 11.6244 7.88928 11.6667 7.99808 11.6667C8.10262 11.6667 8.20724 11.6276 8.2882 11.549ZM17.174 18.96C16.7343 19.6112 15.9465 20 15.0665 20H4.93345C4.05349 20 3.26562 19.6112 2.82599 18.96C2.47279 18.4368 2.40295 17.8077 2.63433 17.2338L4.16595 13.4353C4.16595 13.435 4.16595 13.4348 4.16595 13.4345C4.16595 13.4157 4.16595 11.25 4.16595 11.25C4.16595 10.5083 4.35537 9.80383 4.69495 9.17012C4.68199 9.15625 4.66987 9.14138 4.65866 9.12542C4.0637 8.28063 3.74924 7.28638 3.74924 6.25C3.74924 2.80375 6.55329 0 9.99999 0C13.4467 0 16.2507 2.80375 16.2507 6.25C16.2507 7.28638 15.9362 8.28067 15.3413 9.12538C15.3301 9.14129 15.3179 9.15621 15.305 9.17008C15.6446 9.80375 15.834 10.5083 15.834 11.25C15.834 11.25 15.834 13.4157 15.834 13.4344C15.834 13.4348 15.834 13.435 15.834 13.4353L17.3657 17.2338C17.5971 17.8077 17.5272 18.4368 17.174 18.96ZM5.19216 8.42063C5.89224 7.54954 6.90574 6.87733 8.09212 6.52454C7.10991 5.89429 6.45791 4.79271 6.45791 3.54167C6.45791 3.5415 6.45791 3.53758 6.45791 3.53742C6.45841 3.14704 6.69258 2.79667 7.05441 2.64479C7.92949 2.2775 8.94803 2.08333 9.99999 2.08333C11.0519 2.08333 12.0705 2.2775 12.9456 2.64479C13.3075 2.79671 13.5416 3.14708 13.5421 3.53742C13.5421 3.53758 13.5421 3.5415 13.5421 3.54167C13.5421 4.79271 12.8901 5.89429 11.9078 6.52454C13.0942 6.87733 14.1077 7.54954 14.8078 8.42058C15.2073 7.76817 15.4173 7.02325 15.4173 6.25C15.4173 3.26325 12.9871 0.833333 9.99995 0.833333C7.01283 0.833333 4.58262 3.26325 4.58262 6.25C4.58266 7.02325 4.79258 7.76821 5.19216 8.42063ZM12.7087 3.54167C12.7086 3.485 12.6742 3.43463 12.623 3.41317C11.8491 3.08838 10.9421 2.91667 9.99999 2.91667C9.05787 2.91667 8.15083 3.08838 7.37699 3.41317C7.32583 3.43463 7.29141 3.485 7.29137 3.53846C7.29133 5.03504 8.50641 6.25 9.99999 6.25C11.4935 6.25 12.7087 5.03504 12.7087 3.54167ZM9.99999 7.08333C9.71674 7.08333 9.43903 7.10304 9.16853 7.14092C9.1982 7.57367 9.55978 7.91667 9.99999 7.91667C10.4402 7.91667 10.8018 7.57367 10.8315 7.14092C10.5609 7.10304 10.2832 7.08333 9.99999 7.08333ZM16.5927 17.5454L15.2677 14.2595L14.9143 14.6129C14.5995 14.9277 14.1809 15.101 13.7356 15.101C13.2904 15.101 12.8718 14.9277 12.557 14.6129C12.2421 14.2981 12.0687 13.8796 12.0687 13.4344C12.0687 12.9892 12.2422 12.5707 12.557 12.2559L13.2757 11.5372L12.9286 10.0976C12.8747 9.87392 13.0123 9.64883 13.236 9.59492C13.4597 9.54083 13.6849 9.67858 13.7388 9.90229L14.1132 11.455L15.0006 12.3422V11.25C15.0006 9.43417 13.5994 7.88596 11.6506 7.31654C11.5368 8.12554 10.84 8.75 9.99999 8.75C9.16003 8.75 8.4632 8.12554 8.34937 7.31654C6.40058 7.88596 4.99937 9.43417 4.99937 11.25V12.3422L5.88674 11.455L6.26116 9.90229C6.31512 9.67858 6.54029 9.541 6.76395 9.59492C6.98766 9.64883 7.12533 9.87392 7.07137 10.0976L6.72424 11.5372L7.44304 12.2559C7.75787 12.5706 7.93124 12.9892 7.93124 13.4344C7.93124 13.8796 7.75783 14.2981 7.44304 14.6129C7.1282 14.9277 6.70962 15.101 6.26437 15.101C5.81912 15.101 5.40054 14.9277 5.0857 14.6129L4.73229 14.2595L3.40729 17.5454C3.27933 17.8628 3.3182 18.1996 3.51674 18.4937C3.79699 18.9088 4.33983 19.1667 4.93345 19.1667H15.0665C15.6602 19.1667 16.203 18.9088 16.4832 18.4937C16.6818 18.1996 16.7207 17.8628 16.5927 17.5454ZM5.67504 14.0237C5.83245 14.1811 6.04174 14.2678 6.26437 14.2678C6.48699 14.2678 6.69629 14.1811 6.85366 14.0237C7.01108 13.8663 7.09779 13.657 7.09779 13.4344C7.09779 13.2118 7.01108 13.0026 6.85366 12.8452L6.26437 12.2559L5.0857 13.4344L5.67504 14.0237ZM13.7356 12.2559L13.1463 12.8452C12.9889 13.0026 12.9022 13.2118 12.9022 13.4344C12.9022 13.657 12.9889 13.8663 13.1463 14.0237C13.3037 14.1811 13.513 14.2678 13.7356 14.2678C13.9582 14.2678 14.1675 14.1811 14.3249 14.0237L14.9142 13.4344L13.7356 12.2559Z" stroke="none" fill="current"/>
</svg>
