<svg width="25" height="25" viewBox="0 0 25 25" fill="none" stroke="none" xmlns="http://www.w3.org/2000/svg">
<path d="M12.5 0C5.59658 0 0 5.59658 0 12.5C0 19.4034 5.59658 25 12.5 25C19.4034 25 25 19.4034 25 12.5C25 5.59658 19.4034 0 12.5 0ZM12.5 22.9167C6.74717 22.9167 2.08335 18.2528 2.08335 12.5C2.08335 6.74717 6.74717 2.08335 12.5 2.08335C18.2528 2.08335 22.9167 6.74717 22.9167 12.5C22.9167 18.2528 18.2528 22.9167 12.5 22.9167Z" fill="current" stroke="none"/>
<path d="M13.6079 11.4743H11.3921C10.5864 11.4743 9.93375 10.7933 9.93375 9.95252C9.93375 9.11177 10.5864 8.43076 11.3921 8.43076H15.2919C15.8236 8.43076 16.2587 7.97676 16.2587 7.42186C16.2587 6.86696 15.8236 6.41296 15.2919 6.41296H13.4628V5.0089C13.4628 4.45401 13.0278 4 12.496 4C11.9642 4 11.5291 4.45401 11.5291 5.0089V6.41296H11.3921C9.52283 6.41296 8 8.00198 8 9.95252C8 11.9031 9.52283 13.4921 11.3921 13.4921H13.6079C14.4136 13.4921 15.0662 14.1731 15.0662 15.0138C15.0662 15.8546 14.4136 16.5356 13.6079 16.5356H9.63563C9.10385 16.5356 8.66875 16.9896 8.66875 17.5445C8.66875 18.0994 9.10385 18.5534 9.63563 18.5534H11.5372V19.9911C11.5372 20.546 11.9722 21 12.504 21C13.0358 21 13.4709 20.546 13.4709 19.9911V18.5534H13.6321C13.6401 18.5534 13.6482 18.5534 13.6562 18.5534C15.5094 18.5282 17 16.9476 17 15.0138C17 13.0633 15.4772 11.4743 13.6079 11.4743Z" fill="current" stroke="none"/>
</svg>
