<svg width="23" height="23" viewBox="0 0 23 23" fill="none" xmlns="http://www.w3.org/2000/svg">
<g clip-path="url(#clip0_107_832)">
<path d="M11.5 0C9.83578 0 8.47368 1.29399 8.47368 2.875C8.47368 3.52287 8.70855 4.11785 9.09313 4.6H9.07895C7.41473 4.6 6.05263 5.89399 6.05263 7.475V9.775C6.05263 11.1584 7.09807 12.3223 8.47368 12.5916V17.825C8.47368 18.7777 9.28664 19.55 10.2895 19.55H11.5H12.7105C13.7134 19.55 14.5263 18.7777 14.5263 17.825V12.5916C15.9019 12.3223 16.9474 11.1584 16.9474 9.775V7.475C16.9474 5.89399 15.5853 4.6 13.9211 4.6H13.9069C14.2915 4.11785 14.5263 3.52287 14.5263 2.875C14.5263 1.29399 13.1642 0 11.5 0ZM11.5 1.15C12.51 1.15 13.3158 1.9155 13.3158 2.875C13.3158 3.26804 13.168 3.61517 12.9753 3.86104C12.7827 4.1069 12.697 4.35015 12.6963 4.6C12.6963 5.23513 13.2383 5.75 13.9069 5.75H13.9211C14.9311 5.75 15.7368 6.5155 15.7368 7.475V9.775C15.7368 10.5313 15.233 11.1613 14.5263 11.3967V8.05C14.5263 7.73244 14.2553 7.475 13.9211 7.475C13.5868 7.475 13.3158 7.73244 13.3158 8.05V17.825C13.3158 18.1426 13.0448 18.4 12.7105 18.4H12.1053V13.225C12.1053 12.9074 11.8343 12.65 11.5 12.65C11.1657 12.65 10.8947 12.9074 10.8947 13.225V18.4H10.2895C9.9552 18.4 9.68421 18.1426 9.68421 17.825V8.05C9.68421 7.73244 9.41323 7.475 9.07895 7.475C8.74467 7.475 8.47368 7.73244 8.47368 8.05V11.3967C7.76697 11.1613 7.26316 10.5313 7.26316 9.775V7.475C7.26316 6.5155 8.06895 5.75 9.07895 5.75H9.09313C9.76169 5.75 10.3037 5.23513 10.3037 4.6C10.303 4.35015 10.2173 4.1069 10.0247 3.86104C9.83205 3.61517 9.68421 3.26804 9.68421 2.875C9.68421 1.9155 10.49 1.15 11.5 1.15ZM7.26316 14.1122C5.88018 14.323 4.62522 14.6317 3.56301 15.0264C2.52821 15.4108 1.66907 15.8711 1.0403 16.4234C0.411523 16.9757 0 17.6533 0 18.4C0 19.1467 0.411523 19.8243 1.0403 20.3766C1.66907 20.9289 2.52821 21.3892 3.56301 21.7736C5.63262 22.5425 8.42088 23 11.5 23C14.5791 23 17.3674 22.5425 19.437 21.7736C20.4718 21.3892 21.3309 20.9289 21.9597 20.3766C22.5885 19.8243 23 19.1467 23 18.4C23 17.6533 22.5885 16.9757 21.9597 16.4234C21.3309 15.8711 20.4718 15.4108 19.437 15.0264C18.3748 14.6317 17.1198 14.323 15.7368 14.1122V15.2038C16.981 15.4036 18.101 15.6846 19.0256 16.0281C19.9694 16.3788 20.7135 16.7944 21.1913 17.2141C21.6691 17.6337 21.8675 18.025 21.8675 18.4C21.8675 18.775 21.6691 19.1663 21.1913 19.5859C20.7135 20.0056 19.9694 20.4212 19.0256 20.7719C17.1379 21.4732 14.4595 21.9241 11.5 21.9241C8.54054 21.9241 5.86206 21.4732 3.9744 20.7719C3.03057 20.4212 2.28649 20.0056 1.8087 19.5859C1.33091 19.1663 1.1325 18.775 1.1325 18.4C1.1325 18.025 1.33091 17.6337 1.8087 17.2141C2.28649 16.7944 3.03057 16.3788 3.9744 16.0281C4.89903 15.6846 6.01897 15.4036 7.26316 15.2038V14.1122Z" fill="#3B4446"/>
</g>
<defs>
<clipPath id="clip0_107_832">
<rect width="23" height="23" fill="white"/>
</clipPath>
</defs>
</svg>
