<svg width="25" height="25" viewBox="0 0 25 25" fill="currentColor" xmlns="http://www.w3.org/2000/svg">
<path d="M12.5 16.7969C13.8463 16.7954 15.1371 16.2598 16.0891 15.3078C17.0411 14.3558 17.5766 13.0651 17.5781 11.7188V6.25C17.5781 4.9032 17.0431 3.61156 16.0908 2.65922C15.1384 1.70689 13.8468 1.17188 12.5 1.17188C11.1532 1.17188 9.86156 1.70689 8.90922 2.65922C7.95689 3.61156 7.42188 4.9032 7.42188 6.25V11.7188C7.4234 13.0651 7.95891 14.3558 8.91091 15.3078C9.86291 16.2598 11.1537 16.7954 12.5 16.7969V16.7969ZM9.76562 6.25C9.76562 5.5248 10.0537 4.8293 10.5665 4.31651C11.0793 3.80371 11.7748 3.51563 12.5 3.51562C13.2252 3.51562 13.9207 3.80371 14.4335 4.31651C14.9463 4.8293 15.2344 5.5248 15.2344 6.25V11.7188C15.2344 12.444 14.9463 13.1395 14.4335 13.6522C13.9207 14.165 13.2252 14.4531 12.5 14.4531C11.7748 14.4531 11.0793 14.165 10.5665 13.6522C10.0537 13.1395 9.76562 12.444 9.76562 11.7188V6.25ZM13.6719 20.6267V22.6562C13.6719 22.9671 13.5484 23.2651 13.3286 23.4849C13.1089 23.7047 12.8108 23.8281 12.5 23.8281C12.1892 23.8281 11.8911 23.7047 11.6714 23.4849C11.4516 23.2651 11.3281 22.9671 11.3281 22.6562V20.6267C9.16803 20.3396 7.1855 19.2784 5.74869 17.6402C4.31187 16.0019 3.5184 13.8978 3.51562 11.7188C3.51562 11.4079 3.63909 11.1099 3.85886 10.8901C4.07863 10.6703 4.3767 10.5469 4.6875 10.5469C4.9983 10.5469 5.29637 10.6703 5.51614 10.8901C5.73591 11.1099 5.85937 11.4079 5.85938 11.7188C5.85938 13.48 6.55901 15.169 7.80437 16.4144C9.04973 17.6597 10.7388 18.3594 12.5 18.3594C14.2612 18.3594 15.9503 17.6597 17.1956 16.4144C18.441 15.169 19.1406 13.48 19.1406 11.7188C19.1406 11.4079 19.2641 11.1099 19.4839 10.8901C19.7036 10.6703 20.0017 10.5469 20.3125 10.5469C20.6233 10.5469 20.9214 10.6703 21.1411 10.8901C21.3609 11.1099 21.4844 11.4079 21.4844 11.7188C21.4816 13.8978 20.6881 16.0019 19.2513 17.6402C17.8145 19.2784 15.832 20.3396 13.6719 20.6267Z" fill="#3B4446"/>
</svg>
