<svg width="25" height="25" viewBox="0 0 25 25" fill="none" xmlns="http://www.w3.org/2000/svg">
<g clip-path="url(#clip0_89_591)">
<path d="M10.8965 13.4087C9.10918 13.4087 7.65546 14.8626 7.65546 16.65C7.65546 18.4373 9.10918 19.8912 10.8965 19.8912C12.6838 19.8912 14.138 18.4373 14.138 16.65C14.138 14.8626 12.6838 13.4087 10.8965 13.4087ZM10.8965 18.8495C9.68393 18.8495 8.69714 17.8628 8.69714 16.65C8.69714 15.4372 9.68393 14.4504 10.8965 14.4504C12.1096 14.4504 13.0963 15.4372 13.0963 16.65C13.0963 17.8628 12.1095 18.8495 10.8965 18.8495Z" fill="current" stroke="current" stroke-width="0.5"/>
<path d="M24.9138 11.7742C24.5767 9.90709 23.3675 8.33016 21.722 7.57914L21.7196 7.31174C21.7196 4.97776 17.9003 2.72919 10.8171 2.72919C5.06243 2.72919 -0.0238445 4.88424 8.40914e-05 7.50908L0.0127882 8.94113C0.0209004 9.79944 0.696411 10.4978 1.5183 10.4978C1.51988 10.4978 1.53003 10.4978 1.53151 10.4978L4.91289 10.4673C5.74197 10.4594 6.41029 9.74888 6.40269 8.88266C6.39605 8.17465 6.82687 7.4898 7.61473 6.95439C8.46769 6.37505 9.76141 6.03863 10.8471 6.03863C13.3343 6.03863 15.3291 7.27791 15.3428 8.80153C15.3505 9.66016 16.0254 10.3587 16.8611 10.3587L20.2425 10.328C20.6509 10.3244 21.0309 10.1533 21.3137 9.84602C21.5835 9.5524 21.7318 9.1676 21.7321 8.76128C22.8419 9.43424 23.6431 10.6018 23.8883 11.9593C24.1747 13.5432 23.5766 15.2509 22.3645 16.3097C21.7281 16.8655 20.9915 17.1094 19.7856 17.1518C19.663 16.3611 19.3234 15.614 18.7974 14.9994L13.3998 9.92077V8.46965H12.3581V9.625H9.43468V8.46965H8.39299V9.92056C8.39299 9.92056 4.09539 13.8984 3.03503 14.9587C1.90585 16.0879 1.95575 17.9454 1.95575 17.9454C1.95575 20.3304 3.89616 22.2708 6.28116 22.2708H15.5118C17.8141 22.2708 19.7013 20.4632 19.8301 18.193C20.9233 18.1566 22.0532 17.9647 23.0502 17.0942C24.5318 15.7992 25.2632 13.7111 24.9138 11.7742ZM20.2334 9.28623L16.8484 9.31699C16.5951 9.31699 16.3845 9.08174 16.3845 8.79209C16.3845 6.47908 13.7159 4.99689 10.8379 4.99689C9.48973 4.99689 8.05059 5.39924 7.02978 6.09276C5.94381 6.83026 5.35126 7.82439 5.36095 8.89199C5.3635 9.18368 5.15799 9.42327 4.9032 9.42556L1.52192 9.45613H1.51835C1.26508 9.45613 1.05702 9.22062 1.05447 8.93143L1.04177 7.49965C1.026 5.77817 5.23753 3.77087 10.8263 3.77087C16.3102 3.77087 20.678 5.44459 20.678 7.32118L20.6907 8.75347C20.6906 8.99975 20.5249 9.28623 20.2334 9.28623ZM18.796 17.9454C18.796 19.7562 17.3225 21.2291 15.5118 21.2291H6.28116C4.47039 21.2291 2.99743 19.7562 2.99743 17.9454C2.99743 17.9454 2.96284 16.5942 3.76952 15.6976L9.12029 10.6667H12.6726L18.0239 15.6976C18.8585 16.5955 18.796 17.9454 18.796 17.9454Z" fill="current" stroke="current" stroke-width="0.5"/>
</g>
<defs>
<clipPath id="clip0_89_591">
<rect width="25" height="25" fill="white"/>
</clipPath>
</defs>
</svg>
