<svg width="48" height="48" viewBox="0 0 48 48" stroke="none" fill="none" xmlns="http://www.w3.org/2000/svg">
<path d="M11.5 36.5C11.287 36.4999 11.0775 36.4453 10.8914 36.3415C10.7054 36.2376 10.549 36.088 10.4371 35.9067C10.3251 35.7254 10.2614 35.5185 10.2519 35.3057C10.2424 35.0929 10.2875 34.8811 10.3828 34.6906L12.2578 30.9406C12.4062 30.6441 12.6662 30.4187 12.9808 30.3139C13.2954 30.2092 13.6387 30.2337 13.9352 30.382C14.2317 30.5304 14.4571 30.7904 14.5618 31.105C14.6666 31.4196 14.6421 31.7629 14.4938 32.0594L12.6188 35.8094C12.5148 36.017 12.3551 36.1917 12.1575 36.3136C11.9599 36.4356 11.7322 36.5001 11.5 36.5Z" stroke="none" fill="current"/>
<path d="M13.375 41.5C13.162 41.4999 12.9525 41.4453 12.7664 41.3415C12.5804 41.2376 12.424 41.088 12.3121 40.9067C12.2001 40.7254 12.1364 40.5185 12.1269 40.3057C12.1174 40.0929 12.1625 39.8811 12.2578 39.6906L13.5078 37.1906C13.6562 36.8941 13.9162 36.6687 14.2308 36.5639C14.3866 36.512 14.551 36.4914 14.7148 36.503C14.8785 36.5147 15.0383 36.5586 15.1852 36.632C15.332 36.7055 15.4629 36.8071 15.5704 36.9312C15.6779 37.0552 15.76 37.1992 15.8118 37.355C15.8637 37.5107 15.8844 37.6752 15.8727 37.8389C15.861 38.0027 15.8172 38.1625 15.7438 38.3094L14.4938 40.8094C14.3898 41.017 14.2301 41.1916 14.0325 41.3136C13.8349 41.4356 13.6072 41.5001 13.375 41.5Z" stroke="none" fill="current"/>
<path d="M33.375 36.5C33.162 36.4999 32.9525 36.4453 32.7664 36.3415C32.5804 36.2376 32.424 36.088 32.3121 35.9067C32.2001 35.7254 32.1364 35.5185 32.1269 35.3057C32.1174 35.0929 32.1625 34.8811 32.2578 34.6906L34.1328 30.9406C34.2812 30.6441 34.5412 30.4187 34.8558 30.3139C35.1704 30.2092 35.5137 30.2337 35.8102 30.382C36.1067 30.5304 36.3321 30.7904 36.4368 31.105C36.5416 31.4196 36.5171 31.7629 36.3688 32.0594L34.4938 35.8094C34.3898 36.017 34.2301 36.1917 34.0325 36.3136C33.8349 36.4356 33.6072 36.5001 33.375 36.5Z" fill="current" stroke="none"/>
<path d="M35.25 41.5C35.037 41.4999 34.8275 41.4453 34.6414 41.3415C34.4554 41.2376 34.299 41.088 34.1871 40.9067C34.0751 40.7254 34.0114 40.5185 34.0019 40.3057C33.9924 40.0929 34.0375 39.8811 34.1328 39.6906L35.3828 37.1906C35.5312 36.8941 35.7912 36.6687 36.1058 36.5639C36.4204 36.4592 36.7637 36.4837 37.0602 36.632C37.3567 36.7804 37.5821 37.0404 37.6868 37.355C37.7916 37.6696 37.7671 38.0129 37.6188 38.3094L36.3688 40.8094C36.2648 41.017 36.1051 41.1917 35.9075 41.3136C35.7099 41.4356 35.4822 41.5001 35.25 41.5Z" fill="current" stroke="none"/>
<path d="M35.7062 14.6953C35.1838 12.2193 33.8802 9.97645 31.9875 8.29685C30.5837 7.04104 28.9031 6.13475 27.0825 5.65185C25.2619 5.16895 23.353 5.12311 21.5114 5.51808C19.6697 5.91305 17.9475 6.73764 16.4851 7.92463C15.0227 9.11162 13.8614 10.6274 13.0961 12.3484C8.72656 12.6062 5.25 16.2383 5.25 20.6664C5.25 25.2617 8.99297 29 13.5938 29H18.7742L17.7672 35.0445C17.7373 35.2236 17.7469 35.407 17.7951 35.582C17.8433 35.757 17.929 35.9194 18.0464 36.0579C18.1637 36.1964 18.3098 36.3077 18.4745 36.384C18.6391 36.4604 18.8185 36.4999 19 36.5H21.5V41.5C21.5005 41.7644 21.5847 42.0219 21.7408 42.2354C21.8968 42.4489 22.1165 42.6074 22.3683 42.6881C22.6201 42.7689 22.891 42.7677 23.1421 42.6848C23.3932 42.6018 23.6115 42.4414 23.7656 42.2265L30.0156 33.4765C30.149 33.2897 30.2285 33.0698 30.2452 32.8409C30.2619 32.612 30.2152 32.3828 30.1103 32.1787C30.0054 31.9745 29.8463 31.8032 29.6504 31.6835C29.4546 31.5637 29.2295 31.5003 29 31.5H26.8508L27.4758 29H35.5883C37.4702 28.9924 39.2733 28.2435 40.6069 26.9156C41.9404 25.5877 42.6969 23.7878 42.7124 21.9059C42.7279 20.024 42.0012 18.2119 40.6898 16.8621C39.3783 15.5124 37.5878 14.7339 35.7062 14.6953V14.6953Z" fill="current" stroke="none"/>
</svg>
