<svg width="48" height="48" viewBox="0 0 48 48" stroke="none" fill="none" xmlns="http://www.w3.org/2000/svg">
<path d="M32.252 38.5C33.2185 38.5 34.002 39.2835 34.002 40.25C34.002 41.1682 33.2949 41.9212 32.3955 41.9942L32.252 42H15.752C14.7855 42 14.002 41.2165 14.002 40.25C14.002 39.3318 14.7091 38.5788 15.6085 38.5058L15.752 38.5H32.252ZM38.2518 32.5047C39.2183 32.5047 40.0018 33.2882 40.0018 34.2547C40.0018 35.1729 39.2947 35.9259 38.3953 35.9989L38.2518 36.0047H9.75225C8.78576 36.0047 8.00225 35.2212 8.00225 34.2547C8.00225 33.3365 8.70936 32.5835 9.60873 32.5105L9.75225 32.5047H38.2518ZM24 6.00964C30.3371 6.00964 33.932 10.2042 34.4548 15.2699L34.6147 15.2699C38.6929 15.2699 41.9989 18.5673 41.9989 22.6349C41.9989 26.7026 38.6929 30 34.6147 30H13.3853C9.30711 30 6.00111 26.7026 6.00111 22.6349C6.00111 18.5673 9.30711 15.2699 13.3853 15.2699L13.5452 15.2699C14.0711 10.1709 17.6629 6.00964 24 6.00964Z" stroke="none" fill="current"/>
</svg>
